<svg version="1.1" id="Layer_1" xmlns="http://www.w3.org/2000/svg" xmlns:xlink="http://www.w3.org/1999/xlink" x="0px" y="0px"
	 width="100%" viewBox="0 0 225 225" enable-background="new 0 0 225 225" xml:space="preserve">
<path fill="#FDFEFE" opacity="1.000000" stroke="none" 
	d="
M214.000000,226.000000 
	C143.035156,226.000000 72.070297,226.000000 1.052726,226.000000 
	C1.052726,151.072311 1.052726,76.144577 1.052726,1.108422 
	C75.890450,1.108422 150.781113,1.108422 226.000000,1.108422 
	C226.000000,74.353905 226.000000,147.708298 225.543030,221.541275 
	C222.787323,222.015747 220.484879,222.092316 218.190750,221.987137 
	C215.315750,221.855316 213.823517,223.018326 214.000000,226.000000 
M162.232437,46.686424 
	C162.455658,46.880157 162.714935,46.983509 163.522263,47.017906 
	C163.684464,47.071442 163.846664,47.124977 164.397339,47.597034 
	C164.767319,47.651669 165.137283,47.706303 166.307739,47.704777 
	C168.192520,47.761036 170.077286,47.817295 172.314270,48.403534 
	C173.221588,48.021641 174.128891,47.639748 175.791641,47.076332 
	C185.953201,44.560688 189.570740,41.116421 190.918060,32.304878 
	C191.452835,28.053143 189.253204,25.325079 185.406891,24.754747 
	C181.683365,24.202625 177.792343,24.780020 173.613174,24.249409 
	C167.749771,22.156376 166.637390,22.657753 162.446075,29.189575 
	C161.872437,29.779205 161.298782,30.368834 160.160461,31.056618 
	C159.763870,31.642902 159.367264,32.229187 158.744186,33.067551 
	C158.744186,33.067551 158.424637,33.180344 157.772034,33.211239 
	C157.180099,33.475811 156.588181,33.740379 155.890213,33.733101 
	C155.807968,33.683342 155.725739,33.633583 155.643494,33.583820 
	C155.763977,33.721275 155.884460,33.858734 155.932266,34.728344 
	C155.932266,37.917141 155.932266,41.105938 155.932266,44.698074 
	C157.660599,44.824577 159.272858,44.942589 160.971008,45.062172 
	C160.971008,45.062172 160.950897,45.145672 161.101837,45.510937 
	C161.240494,45.741627 161.426468,45.924118 161.867264,46.158154 
	C161.867264,46.158154 161.953232,46.371742 162.232437,46.686424 
M127.049164,211.988052 
	C127.049164,211.988052 127.069237,212.046036 127.638535,211.966644 
	C128.105515,211.488663 128.572479,211.010681 129.682877,210.163605 
	C129.468842,209.410095 129.254807,208.656570 128.910141,207.311890 
	C128.814468,207.134201 128.718796,206.956528 128.704102,206.717361 
	C128.704102,206.717361 128.788925,206.661301 129.516464,206.904022 
	C133.101410,206.599411 133.281586,204.639877 132.064377,201.232147 
	C132.627014,199.762207 133.874664,198.172958 133.642700,196.841446 
	C131.960678,187.186157 129.980118,177.582870 128.040726,167.257843 
	C128.757004,165.857742 129.473297,164.457657 130.600128,163.073181 
	C130.600128,163.073181 131.000702,162.981918 131.693542,162.924347 
	C132.031021,162.353516 132.368484,161.782669 133.255981,161.242462 
	C133.687363,160.929855 134.118744,160.617249 135.125977,159.942795 
	C136.569351,156.785156 138.697662,153.574997 134.222137,150.388123 
	C133.958008,150.182373 133.693893,149.976624 133.069382,149.174835 
	C125.697685,142.441208 116.898033,144.498291 107.672600,145.072571 
	C107.118568,145.347336 106.564529,145.622101 105.593292,146.045685 
	C105.593292,146.045685 105.151062,146.070908 104.339424,146.015976 
	C101.126122,146.569290 97.312874,146.260193 97.008125,151.010071 
	C97.008125,151.010071 97.089676,151.041626 96.571915,151.280930 
	C96.350044,151.787369 96.128166,152.293793 95.953262,152.908112 
	C95.953262,152.908112 95.838799,152.935303 95.158989,153.107025 
	C91.859604,157.510742 92.189774,158.861679 97.676407,161.279526 
	C100.068886,162.999802 102.461365,164.720078 104.803673,166.404282 
	C103.550636,171.109955 102.360313,175.580124 100.928024,180.757294 
	C100.810265,181.491302 100.692513,182.225327 100.544609,183.312027 
	C100.544609,183.312027 100.879677,183.426178 100.257431,183.971588 
	C99.498833,190.922089 98.740242,197.872589 97.981651,204.823105 
	C98.475281,204.878830 98.968910,204.934555 99.462540,204.990280 
	C99.943954,203.409012 100.425369,201.827744 101.027641,200.674332 
	C101.220207,200.923920 101.473228,201.065262 101.838242,201.771194 
	C102.199738,202.796158 102.561234,203.821136 102.277107,205.136749 
	C102.838753,206.056580 103.400398,206.976410 104.603363,208.080109 
	C105.392464,208.461090 106.181564,208.842072 107.146957,209.597183 
	C107.440704,209.454758 107.734451,209.312332 108.765198,209.074509 
	C109.759407,206.721863 110.753609,204.369232 112.008614,201.207397 
	C112.333626,195.803085 112.658630,190.398788 113.140366,184.209732 
	C113.423889,181.798737 113.707413,179.387756 114.823128,176.983643 
	C116.481674,176.995392 118.140228,177.007156 119.956436,177.877731 
	C120.377441,184.931534 120.573524,192.008926 121.310303,199.029587 
	C121.703644,202.777695 123.030441,206.427826 124.122711,210.590775 
	C124.413658,210.715897 124.704605,210.841019 125.196274,211.275620 
	C125.196274,211.275620 125.564819,211.287231 125.499420,212.038483 
	C125.599556,212.269043 125.699684,212.499603 126.219559,212.990540 
	C126.475639,212.657013 126.731728,212.323471 127.049164,211.988052 
M185.259399,204.736725 
	C185.259399,204.736725 185.316422,204.713455 185.123627,205.469040 
	C184.879669,207.734344 184.975098,209.601395 188.777298,208.287354 
	C191.570572,208.355972 194.363846,208.424591 197.870895,208.258209 
	C203.127655,206.097122 203.978119,203.762360 200.491699,199.664398 
	C196.087372,194.487503 192.851135,189.042725 194.465759,181.237732 
	C194.960602,177.681442 195.681870,174.133179 195.808304,170.563828 
	C195.844833,169.532227 194.261993,167.627731 193.267960,167.518280 
	C189.259216,167.076874 185.190399,167.180878 180.687180,167.003204 
	C180.687180,167.003204 180.229904,166.953812 180.166290,166.120331 
	C180.222305,162.943008 177.944290,162.750320 175.759003,162.985886 
	C172.315720,163.357025 168.903503,164.032104 165.495132,164.669510 
	C165.301315,164.705734 165.106537,165.585678 165.173401,166.033981 
	C165.771210,170.042191 166.427734,174.041626 166.991806,178.927826 
	C167.687149,185.051758 166.123734,190.278717 161.384399,194.540466 
	C160.389435,195.435196 159.891144,197.440216 159.978226,198.884506 
	C160.372665,205.426086 166.673950,207.835251 173.727997,203.926010 
	C174.146591,203.250214 174.565201,202.574432 175.214966,201.388763 
	C175.754303,200.889664 176.293640,200.390564 177.554932,200.221390 
	C179.360275,200.482025 181.165634,200.742676 183.156540,201.333801 
	C183.156540,201.333801 183.133194,201.712097 183.039429,202.503616 
	C183.803345,203.235077 184.567261,203.966522 185.259399,204.736725 
M62.132359,129.134033 
	C61.087791,126.102257 60.043224,123.070480 58.974689,119.516472 
	C58.948917,119.344131 58.923145,119.171783 58.961472,118.282890 
	C57.930046,117.108093 56.898617,115.933296 55.584480,113.986694 
	C53.403610,113.716797 51.222740,113.446892 48.958912,112.449448 
	C46.980476,108.830727 44.412296,106.433830 39.270203,108.011169 
	C38.854080,107.961441 38.437962,107.911713 37.815071,107.563896 
	C37.536690,107.677269 37.258308,107.790642 36.329430,108.009239 
	C35.891941,108.045639 35.454453,108.082039 34.638603,107.590309 
	C29.966587,108.676552 25.552214,110.061172 24.281561,116.062279 
	C20.166365,117.213921 17.912981,119.516060 17.786608,124.192909 
	C17.337816,140.801804 16.577829,157.402267 15.230547,174.089798 
	C14.552505,175.061203 13.100988,176.572174 13.334863,176.907455 
	C14.192253,178.136566 15.471124,179.300735 16.847837,179.887512 
	C19.204372,180.891907 21.754194,181.442795 24.202486,183.067825 
	C23.793779,187.856857 23.530790,192.664276 22.929834,197.429062 
	C22.456959,201.178360 24.001837,202.821564 27.560089,203.624161 
	C42.351543,206.960464 56.026840,202.825165 69.500229,197.493530 
	C70.562759,197.073074 71.896736,194.828827 71.605698,193.903717 
	C69.673744,187.762756 67.332771,181.750458 65.142578,175.340515 
	C65.142578,175.340515 65.025673,175.004013 65.095451,174.525299 
	C65.095451,174.525299 65.157646,174.045609 65.990463,174.012314 
	C69.220428,174.199631 72.863403,174.395248 74.165649,170.901855 
	C74.734497,169.375854 72.915230,166.959625 72.012100,164.272980 
	C71.625694,163.190933 71.239296,162.108871 70.797752,160.501953 
	C70.738495,160.336319 70.679245,160.170670 70.708893,159.288452 
	C69.855751,156.835251 69.002602,154.382065 68.139778,151.452271 
	C68.139778,151.452271 67.995674,150.997894 68.020470,150.299362 
	C67.662621,149.204773 67.304771,148.110199 66.973259,146.428436 
	C66.725998,145.923416 66.478737,145.418411 66.154152,144.098190 
	C64.793900,139.373489 63.433647,134.648788 62.047714,130.009521 
	C62.047714,130.009521 62.114395,129.950256 62.132359,129.134033 
M177.597580,65.377602 
	C173.170837,65.407158 168.744095,65.436714 163.715897,65.432953 
	C163.129425,65.984421 162.542969,66.535889 161.399826,67.141869 
	C157.999924,67.076897 157.106033,69.411896 155.782150,72.062401 
	C148.274078,73.358566 145.246689,76.377129 143.233475,84.108467 
	C142.933502,86.718040 142.633514,89.327614 141.654846,92.376595 
	C141.138748,96.097183 139.983978,99.862732 140.242020,103.528831 
	C140.749374,110.736755 141.652451,117.972183 143.153503,125.034325 
	C144.075455,129.371918 144.085602,134.575974 149.095367,137.874496 
	C149.751846,141.749939 151.317291,144.293549 156.110001,143.083847 
	C156.724655,142.686005 157.339310,142.288162 158.094742,141.454910 
	C158.094742,141.454910 158.267960,141.031372 158.940201,141.029160 
	C160.651489,140.672073 162.362762,140.315002 164.860687,140.218399 
	C178.836884,141.830841 192.311951,141.046722 204.791336,132.019684 
	C205.519028,132.013092 206.246704,132.006500 207.479156,132.375854 
	C210.233231,132.251984 212.987305,132.128098 215.741379,132.004227 
	C215.487152,130.355347 215.232941,128.706482 215.020508,126.579613 
	C215.020508,126.579613 215.052368,126.100861 215.748291,125.936104 
	C216.076523,125.117760 216.736786,124.276031 216.681076,123.484718 
	C216.183365,116.415443 216.381699,109.155899 214.733398,102.349976 
	C213.190964,95.981171 209.651840,90.095940 206.923416,83.381729 
	C206.331802,82.915611 205.740204,82.449493 205.045273,81.242538 
	C203.365982,78.833031 201.686676,76.423515 199.628571,73.461845 
	C192.213120,65.774918 187.893295,64.602982 180.099152,67.826263 
	C179.416580,67.212959 178.733994,66.599655 177.597580,65.377602 
M90.938393,34.705620 
	C89.687172,38.811153 88.435944,42.916683 87.019768,47.842827 
	C85.628441,58.551697 84.237114,69.260567 82.390335,80.617081 
	C81.980209,86.092537 81.570091,91.568001 81.019318,97.877121 
	C81.388405,102.909668 81.757492,107.942215 81.871391,113.565445 
	C81.174332,118.884949 85.616997,118.332420 88.450974,118.759354 
	C91.414139,119.205757 93.556541,117.563156 93.236893,113.342644 
	C94.640091,109.831436 96.043282,106.320221 98.359390,102.908333 
	C100.086754,102.908333 101.814117,102.908333 102.990364,102.908333 
	C102.990364,97.986382 102.990364,93.731590 102.990364,89.476791 
	C103.541306,89.365242 104.092255,89.253685 104.643196,89.142136 
	C105.429070,91.115868 106.154526,93.116631 107.021309,95.054161 
	C107.633751,96.423149 108.437706,97.706474 109.486198,99.670334 
	C109.489380,100.147316 109.492561,100.624306 109.173248,101.611931 
	C109.372375,102.732018 109.571510,103.852097 109.961288,105.714165 
	C109.968674,106.478088 109.976067,107.242004 109.512489,108.365219 
	C109.983803,109.573944 110.455109,110.782661 111.247200,112.460777 
	C111.496307,112.970711 111.745407,113.480644 111.801025,114.844582 
	C111.718941,120.632530 112.835350,122.044472 117.590950,122.019020 
	C121.595734,121.997589 123.793472,120.329460 123.110107,115.262047 
	C124.073692,110.175156 125.037277,105.088272 126.295067,99.247269 
	C126.501434,94.489738 126.707809,89.732201 127.055267,84.076042 
	C127.349770,76.329201 127.679291,68.583458 127.922188,60.834999 
	C128.024750,57.563305 127.944870,54.285892 128.166107,50.332546 
	C128.085052,49.870869 128.004013,49.409195 128.088455,48.041847 
	C128.019379,44.037163 127.950310,40.032482 127.989204,35.197750 
	C127.810875,34.108341 127.632545,33.018936 127.553032,31.222816 
	C126.166595,29.911444 124.962463,28.237556 123.329514,27.416376 
	C122.244087,26.870529 120.520714,27.779692 119.126205,27.631092 
	C111.317169,26.798975 103.523102,25.827410 95.720093,24.937138 
	C92.502579,24.570042 90.589722,25.799793 90.551216,29.428480 
	C90.551216,29.428480 90.551956,29.615038 90.302124,30.283306 
	C90.505188,31.538189 90.708252,32.793072 90.938393,34.705620 
M45.590515,33.321949 
	C41.330536,29.748121 39.150951,35.109875 37.385902,35.217384 
	C36.154099,38.082409 35.330509,39.997967 34.110279,42.473690 
	C33.868080,46.703354 33.625885,50.933014 33.152397,55.885918 
	C33.760242,57.932159 34.368088,59.978405 35.009350,62.829216 
	C36.322865,67.022827 37.418934,71.305695 39.081593,75.355980 
	C39.584320,76.580635 41.657043,77.160797 43.121014,78.725197 
	C44.545349,79.415070 45.969685,80.104942 47.394024,80.794815 
	C47.682117,80.446175 47.970207,80.097542 48.258301,79.748909 
	C46.682976,76.670937 45.107651,73.592972 43.436729,70.328217 
	C45.397526,69.547836 47.154667,68.848503 49.736965,67.820763 
	C48.191196,66.595451 46.928696,66.018387 46.396099,65.042831 
	C45.943306,64.213440 45.901562,62.279892 46.414150,61.937710 
	C52.291252,58.014477 58.196587,60.735405 60.063755,67.812042 
	C60.434772,69.218208 61.813385,70.915085 63.131241,71.416595 
	C68.284294,73.377602 70.439781,71.770645 71.664330,64.989220 
	C69.781883,64.989220 68.004181,64.989220 66.026146,64.227768 
	C64.969734,60.794224 63.913319,57.360676 62.910095,53.230404 
	C61.972359,51.457554 61.034626,49.684700 59.975513,47.220211 
	C57.711105,42.311501 54.588310,38.360172 49.127258,36.639893 
	C47.854916,36.239094 46.883087,34.884308 45.590515,33.321949 
M59.174606,72.753448 
	C59.119568,72.587418 59.064529,72.421387 59.009495,72.255356 
	C58.955784,72.422379 58.902077,72.589409 59.174606,72.753448 
z"/>
<path fill="#E4E4E4" opacity="1.000000" stroke="none" 
	d="
M214.458069,226.000000 
	C213.823517,223.018326 215.315750,221.855316 218.190750,221.987137 
	C220.484879,222.092316 222.787323,222.015747 225.543030,222.009933 
	C226.000000,222.750000 226.000000,223.500000 225.771896,224.722595 
	C225.250793,225.387939 225.069534,225.656219 225.000000,226.000000 
	C221.638718,226.000000 218.277420,226.000000 214.458069,226.000000 
z"/>
<path fill="#FDFEFE" opacity="1.000000" stroke="none" 
	d="
M225.500000,226.000000 
	C225.069534,225.656219 225.250793,225.387939 225.771896,225.097595 
	C226.000000,225.333328 226.000000,225.666672 225.500000,226.000000 
z"/>
<path fill="#F8E7EA" opacity="1.000000" stroke="none" 
	d="
M180.467651,68.263641 
	C187.893295,64.602982 192.213120,65.774918 199.841797,74.129761 
	C199.155106,80.064034 198.172531,85.318535 197.414246,90.605202 
	C197.228180,91.902519 197.774673,93.304909 197.984375,94.658997 
	C198.804474,94.393135 199.624573,94.127266 200.786484,93.775017 
	C201.382904,93.074913 201.637497,92.461197 201.914520,91.897797 
	C201.936966,91.948128 201.838837,91.897964 202.208847,91.895325 
	C204.049713,89.261086 205.520569,86.629486 206.991425,83.997894 
	C209.651840,90.095940 213.190964,95.981171 214.733398,102.349976 
	C216.381699,109.155899 216.183365,116.415443 216.681076,123.484718 
	C216.736786,124.276031 216.076523,125.117760 215.220673,125.681931 
	C211.708405,124.726486 208.723740,124.025215 205.329453,123.227699 
	C204.986542,122.490479 204.339569,121.099541 203.551636,119.405548 
	C202.496841,120.884773 201.733902,121.954697 200.628220,123.057922 
	C197.855530,125.718735 195.425598,128.346252 192.797684,131.138779 
	C192.286209,131.264572 191.972687,131.225357 191.167938,131.134766 
	C181.448288,131.390762 172.219879,131.698120 162.837372,131.687073 
	C161.054871,128.092422 159.426483,124.816185 157.798080,121.539955 
	C157.888855,125.917206 158.869141,130.308731 154.829559,133.586395 
	C154.634644,133.744553 154.936508,134.514969 154.639618,135.001434 
	C153.183777,135.617493 152.095337,136.232391 150.688538,136.933990 
	C149.931702,137.049515 149.493210,137.078293 149.054718,137.107086 
	C144.085602,134.575974 144.075455,129.371918 143.153503,125.034325 
	C141.652451,117.972183 140.749374,110.736755 140.242020,103.528831 
	C139.983978,99.862732 141.138748,96.097183 142.240189,92.370766 
	C145.256638,97.296349 148.660141,101.264908 153.956863,103.987633 
	C153.956863,102.491371 154.324860,101.290565 153.898224,100.543671 
	C150.684616,94.917740 147.314682,89.381111 143.993591,83.816582 
	C145.246689,76.377129 148.274078,73.358566 156.291931,72.413834 
	C158.009277,74.892326 159.216858,77.019371 160.676453,79.446739 
	C166.790955,82.757462 172.512390,82.373566 178.442200,78.927643 
	C182.873001,75.870018 181.899231,72.103554 180.467651,68.263641 
M176.042007,117.705978 
	C176.089798,118.391724 176.137589,119.077461 176.287399,121.227341 
	C177.232986,118.944496 177.623779,118.001022 178.605179,116.908875 
	C178.795731,117.261162 178.986267,117.613457 179.047256,118.507462 
	C179.400620,119.012108 179.753967,119.516754 180.866989,120.037956 
	C183.932953,119.896576 186.977997,119.737183 185.233322,116.260223 
	C187.439178,115.341637 189.368698,114.538132 191.850922,113.497047 
	C193.394821,111.909828 193.586960,110.627037 190.493454,109.558380 
	C189.306900,108.703995 188.120346,107.849617 186.961868,106.194115 
	C187.974442,103.461098 188.987000,100.728081 189.853882,97.250542 
	C188.212662,96.848770 186.571426,96.446991 185.006165,96.037605 
	C185.006165,96.037605 184.945984,96.084587 184.928558,95.339966 
	C180.699142,90.478920 178.047119,89.849052 174.792679,93.629745 
	C173.847031,95.096474 172.901398,96.563194 171.258270,98.133133 
	C169.514587,99.442780 167.770920,100.752426 165.800339,102.727562 
	C166.237473,104.470573 166.674622,106.213585 166.629272,108.313789 
	C167.144348,108.897232 167.659424,109.480682 168.004471,110.852844 
	C167.592072,112.793266 167.179657,114.733688 166.708206,116.951927 
	C169.678772,116.951927 171.809402,116.951927 174.593369,117.041901 
	C175.032471,117.027931 175.471588,117.013962 176.042007,117.705978 
z"/>
<path fill="#294669" opacity="1.000000" stroke="none" 
	d="
M126.000870,100.001381 
	C125.037277,105.088272 124.073692,110.175156 122.616959,115.684143 
	C118.087555,118.560074 115.188591,115.568863 111.994514,113.990578 
	C111.745407,113.480644 111.496307,112.970711 111.129837,111.876907 
	C110.669464,110.197327 110.326462,109.101631 109.983459,108.005928 
	C109.976067,107.242004 109.968674,106.478088 109.916222,104.953712 
	C109.746017,103.162605 109.620880,102.131943 109.495750,101.101288 
	C109.492561,100.624306 109.489380,100.147316 109.431091,98.961143 
	C109.307541,95.149612 109.239082,92.047264 109.431519,88.629044 
	C109.795822,78.553223 109.952599,68.793137 109.923546,59.033600 
	C109.920494,58.010426 108.820206,56.990517 107.824036,55.971008 
	C106.529518,59.640648 105.639938,63.308372 104.701965,67.055466 
	C104.653580,67.134834 104.724884,67.306519 104.507065,67.528030 
	C104.273529,68.156418 104.257805,68.563301 104.136452,69.355301 
	C103.717628,71.825874 103.404434,73.911324 102.899643,76.338875 
	C100.954185,85.390320 99.200333,94.099670 97.446480,102.809013 
	C96.043282,106.320221 94.640091,109.831436 92.655319,113.669434 
	C88.758018,113.655739 85.442299,113.315247 82.126579,112.974762 
	C81.757492,107.942215 81.388405,102.909668 81.452522,97.446037 
	C86.019142,96.297737 88.219460,93.413002 88.890442,89.693977 
	C89.751526,84.921356 86.719879,82.064507 82.845787,79.969437 
	C84.237114,69.260567 85.628441,58.551697 87.437675,47.383728 
	C90.550064,43.278233 93.244553,39.631828 96.215179,35.687195 
	C103.419296,35.596695 110.346687,35.923084 117.275497,35.956657 
	C120.256302,35.971104 121.437576,36.934837 122.363136,39.959988 
	C123.553055,43.849190 126.027061,47.345516 127.947922,51.011082 
	C127.944870,54.285892 128.024750,57.563305 127.922188,60.834999 
	C127.679291,68.583458 127.349770,76.329201 126.703979,84.577103 
	C125.896706,85.376366 125.440712,85.674576 124.679138,86.129440 
	C123.131432,87.790520 121.554413,89.130226 120.716682,90.833542 
	C118.955147,94.415146 120.742516,97.166603 125.025391,98.262512 
	C125.361176,99.042747 125.681023,99.522064 126.000870,100.001381 
z"/>
<path fill="#ED8D9A" opacity="1.000000" stroke="none" 
	d="
M58.897369,118.999435 
	C58.923145,119.171783 58.948917,119.344131 58.982983,120.205765 
	C59.322170,124.158386 57.677017,128.103256 62.114395,129.950256 
	C62.114395,129.950256 62.047714,130.009521 62.035019,130.413513 
	C62.016685,132.148560 61.654091,133.606216 62.072857,134.786697 
	C63.291428,138.221725 64.822792,141.545807 66.231476,144.913391 
	C66.478737,145.418411 66.725998,145.923416 66.705994,146.949448 
	C66.957710,148.646271 67.476692,149.822083 67.995674,150.997894 
	C67.995674,150.997894 68.139778,151.452271 67.845444,151.921814 
	C66.062485,155.941620 67.850029,158.171326 70.619995,160.005035 
	C70.679245,160.170670 70.738495,160.336319 70.605972,160.942123 
	C70.268143,161.920471 70.122093,162.458649 69.635406,163.052612 
	C68.866226,164.069031 68.437691,165.029633 67.716232,166.118378 
	C66.620987,166.489380 65.818649,166.732254 64.966858,166.795578 
	C64.917404,166.616013 64.906578,166.243134 64.948837,165.929077 
	C65.008614,165.405807 65.026131,165.196594 65.200211,164.898651 
	C65.249054,164.546555 65.141335,164.283188 65.020203,163.765320 
	C64.997566,163.341156 64.988335,163.171509 64.943604,162.683701 
	C64.283424,161.907471 63.658730,161.449387 62.977943,160.794067 
	C62.921852,160.596832 62.917725,160.186722 62.952156,159.774048 
	C62.393902,157.222076 67.015953,153.219711 60.510296,152.839203 
	C60.217949,151.381912 60.167259,150.191986 60.460278,148.925201 
	C62.938839,146.221512 62.210033,145.005981 58.953766,145.018951 
	C58.976749,144.990524 58.952721,145.058807 58.967560,144.641632 
	C58.691605,141.486969 59.522877,138.230164 55.467171,137.173889 
	C54.883327,137.489746 54.530407,137.760056 53.875519,138.217499 
	C52.313305,142.691437 49.454811,145.113953 45.059135,145.853714 
	C43.684570,146.085052 42.355240,146.585190 40.569283,146.976151 
	C36.079876,145.999008 32.026394,145.007996 27.821636,143.723740 
	C27.286480,142.612656 26.902592,141.794800 26.106888,140.099594 
	C25.348867,149.434830 24.495794,157.795593 24.039448,166.177963 
	C23.603333,174.188705 23.784790,174.198578 15.935717,174.005936 
	C16.577829,157.402267 17.337816,140.801804 17.786608,124.192909 
	C17.912981,119.516060 20.166365,117.213921 24.804567,116.300529 
	C26.481642,118.509598 27.635712,120.480408 28.877512,122.601044 
	C33.634312,122.046669 38.506664,121.579056 43.347336,120.889175 
	C49.331108,120.036392 49.750603,119.370842 49.041870,113.176987 
	C51.222740,113.446892 53.403610,113.716797 55.776810,114.668526 
	C56.945213,116.566719 57.921291,117.783073 58.897369,118.999435 
z"/>
<path fill="#F08A96" opacity="1.000000" stroke="none" 
	d="
M65.025673,175.004013 
	C65.025673,175.004013 65.142578,175.340515 65.091110,175.985504 
	C66.091484,181.814865 67.143326,186.999222 68.200813,192.211395 
	C63.100891,197.412582 56.327034,200.252014 48.995613,201.609482 
	C47.300339,199.813553 45.647560,197.284912 43.918007,197.231277 
	C40.029575,197.110641 34.951763,195.078049 32.628593,201.010284 
	C31.174753,200.674271 30.086273,200.339569 28.997665,199.594940 
	C28.997974,195.701416 28.947050,192.216797 29.017721,188.734619 
	C29.061562,186.574524 28.882313,184.744537 26.007990,184.553986 
	C26.598394,179.393875 25.619455,173.383835 28.173376,170.291870 
	C31.538504,166.217804 31.503954,163.527618 29.456408,159.584213 
	C29.141886,158.978470 29.791567,157.872116 30.382687,156.954147 
	C32.763638,156.276001 34.747608,155.142807 36.752686,155.104141 
	C41.751335,155.007690 46.761673,155.418976 51.044411,152.319183 
	C51.723835,153.090622 52.360962,153.542252 52.999523,154.391235 
	C52.199806,157.158752 57.180779,162.442902 49.574497,161.595535 
	C49.227875,161.556931 48.138813,164.614395 48.137569,166.230408 
	C48.136658,167.414948 49.352486,168.600433 50.026024,169.785492 
	C51.043316,168.937256 51.969872,167.932022 53.099926,167.278885 
	C54.654564,166.380325 56.363132,165.748108 57.969574,165.348175 
	C57.659611,166.898651 57.385826,168.102722 57.123848,169.254868 
	C58.990349,168.777054 60.488567,168.393509 61.989716,168.419327 
	C61.420757,171.417786 60.848866,174.006882 60.068623,177.539230 
	C62.503616,176.293884 63.764645,175.648956 65.025673,175.004013 
z"/>
<path fill="#5D97B3" opacity="1.000000" stroke="none" 
	d="
M123.935944,210.122177 
	C123.030441,206.427826 121.703644,202.777695 121.310303,199.029587 
	C120.573524,192.008926 120.377441,184.931534 119.922104,177.052521 
	C118.895958,172.785965 120.035652,168.224319 114.993698,166.520050 
	C114.330856,163.754059 113.666328,161.380630 113.000946,158.681549 
	C112.997849,157.921707 112.995605,157.487503 113.356613,157.097565 
	C117.229362,160.070541 120.176758,158.421936 123.301521,156.107117 
	C124.578217,155.300140 125.582420,154.384750 126.993011,153.098892 
	C129.275192,155.274963 131.912643,157.789810 134.550110,160.304642 
	C134.118744,160.617249 133.687363,160.929855 132.625275,161.256851 
	C131.663284,161.841476 131.332001,162.411697 131.000702,162.981918 
	C131.000702,162.981918 130.600128,163.073181 130.097580,163.043503 
	C129.396851,163.000443 129.198685,162.987076 129.036163,162.622025 
	C128.455429,160.921112 127.966080,158.529068 127.196785,158.435379 
	C125.490227,158.227524 123.643242,159.172577 121.382080,159.772644 
	C124.076317,161.309525 125.535858,162.142090 126.949242,163.349182 
	C125.175629,164.872940 123.448181,166.022186 120.530693,167.963135 
	C123.735519,167.963135 125.914772,167.963135 128.094025,167.963135 
	C129.980118,177.582870 131.960678,187.186157 133.642700,196.841446 
	C133.874664,198.172958 132.627014,199.762207 131.710419,201.747528 
	C130.500610,203.729034 129.644760,205.195175 128.788925,206.661301 
	C128.788925,206.661301 128.704102,206.717361 128.482361,206.780853 
	C128.260635,206.844360 127.911888,206.981537 127.594780,207.120331 
	C126.163765,208.213486 125.049858,209.167831 123.935944,210.122177 
M118.614456,162.951889 
	C119.256729,162.403488 119.899002,161.855072 120.541275,161.306671 
	C120.266655,160.957901 119.992035,160.609146 119.717407,160.260391 
	C118.478561,161.173538 117.239708,162.086700 116.291435,163.451080 
	C116.860764,163.300919 117.430092,163.150772 118.614456,162.951889 
z"/>
<path fill="#6098B4" opacity="1.000000" stroke="none" 
	d="
M134.838043,160.123718 
	C131.912643,157.789810 129.275192,155.274963 126.993011,153.098892 
	C125.582420,154.384750 124.578217,155.300140 123.314827,155.705627 
	C120.230530,151.341339 116.153992,152.559586 112.740433,153.327026 
	C109.671844,154.016907 111.571136,155.851913 112.993355,157.053314 
	C112.995605,157.487503 112.997849,157.921707 112.759674,158.877014 
	C110.014618,159.930267 107.509987,160.462387 104.968521,160.710907 
	C104.625938,160.105957 104.320198,159.784592 104.014450,159.463226 
	C103.832619,159.672577 103.650795,159.881943 103.468964,160.091293 
	C103.977409,160.395966 104.485855,160.700638 105.202972,161.290894 
	C106.273766,163.722198 107.135880,165.867950 107.990265,168.407806 
	C105.988159,173.535446 103.993774,178.268936 101.998726,182.678192 
	C101.722038,181.586060 101.446014,180.818161 101.169998,180.050278 
	C102.360313,175.580124 103.550636,171.109955 104.803673,166.404282 
	C102.461365,164.720078 100.068886,162.999802 97.300621,160.727203 
	C96.562820,157.761673 96.200813,155.348495 95.838799,152.935303 
	C95.838799,152.935303 95.953262,152.908112 96.190453,152.743164 
	C96.648323,152.066040 96.869003,151.553833 97.089676,151.041626 
	C97.089676,151.041626 97.008125,151.010071 97.355789,150.910370 
	C100.185997,149.230759 102.668533,147.650833 105.151062,146.070923 
	C105.151062,146.070908 105.593292,146.045685 106.119461,146.006958 
	C107.205673,145.697327 107.765724,145.426407 108.325775,145.155518 
	C116.898033,144.498291 125.697685,142.441208 133.016357,149.626404 
	C133.451935,150.337112 133.940521,150.596252 134.429108,150.855377 
	C138.697662,153.574997 136.569351,156.785156 134.838043,160.123718 
M130.586136,153.517258 
	C130.586136,153.517258 130.477386,153.581650 130.586136,153.517258 
z"/>
<path fill="#E36D77" opacity="1.000000" stroke="none" 
	d="
M158.424637,33.180344 
	C158.424637,33.180344 158.744186,33.067551 159.120728,32.869480 
	C159.906540,32.100426 160.315826,31.529440 160.725128,30.958460 
	C161.298782,30.368834 161.872437,29.779205 163.076996,29.206175 
	C166.112244,30.400469 168.684723,32.796558 170.884598,32.492928 
	C174.999649,31.924965 174.000748,27.896639 173.974899,24.861307 
	C177.792343,24.780020 181.683365,24.202625 185.406891,24.754747 
	C189.253204,25.325079 191.452835,28.053143 190.428345,32.680099 
	C188.889282,34.407402 188.004211,35.937939 186.762497,37.081070 
	C180.984161,42.400635 174.102386,44.701283 166.293549,43.935486 
	C164.242050,43.734299 162.606445,43.509331 162.608765,46.306282 
	C162.388107,46.289608 161.953232,46.371742 161.953232,46.371742 
	C161.953232,46.371742 161.867264,46.158154 161.746857,45.894100 
	C161.488129,45.347549 161.262955,45.186092 160.950897,45.145672 
	C160.950897,45.145672 160.971008,45.062172 160.807617,44.733757 
	C155.913574,41.452805 156.439026,37.460941 158.424637,33.180344 
z"/>
<path fill="#7A8B9D" opacity="1.000000" stroke="none" 
	d="
M176.832977,199.891464 
	C176.293640,200.390564 175.754303,200.889664 174.784225,201.715744 
	C173.930817,202.705460 173.508133,203.368195 173.085449,204.030945 
	C166.673950,207.835251 160.372665,205.426086 159.978226,198.884506 
	C159.891144,197.440216 160.389435,195.435196 161.384399,194.540466 
	C166.123734,190.278717 167.687149,185.051758 167.425766,178.528229 
	C171.555466,178.099152 175.251221,178.069656 178.983032,178.499695 
	C179.191513,182.929825 179.757248,186.935211 179.410126,190.859879 
	C179.139267,193.922424 177.734100,196.884659 176.832977,199.891464 
z"/>
<path fill="#5A97B4" opacity="1.000000" stroke="none" 
	d="
M101.999390,183.002441 
	C103.993774,178.268936 105.988159,173.535446 108.353897,168.442291 
	C110.139633,168.388214 111.554016,168.693787 113.099503,169.299362 
	C113.431282,170.399429 113.631943,171.199493 113.470657,172.094452 
	C111.434837,176.441788 109.846161,180.695053 112.983643,184.994476 
	C112.658630,190.398788 112.333626,195.803085 111.533508,201.656433 
	C107.580147,205.339111 104.810333,202.050415 101.786713,201.098373 
	C101.473228,201.065262 101.220207,200.923920 100.998749,199.973694 
	C100.939804,193.990768 100.909737,188.708466 100.879677,183.426178 
	C100.879677,183.426178 100.544609,183.312027 100.917168,183.153595 
	C101.526283,182.997604 101.762840,183.000031 101.999390,183.002441 
z"/>
<path fill="#E7939F" opacity="1.000000" stroke="none" 
	d="
M49.003258,202.000137 
	C56.327034,200.252014 63.100891,197.412582 68.200813,192.211395 
	C67.143326,186.999222 66.091484,181.814865 65.082253,176.163406 
	C67.332771,181.750458 69.673744,187.762756 71.605698,193.903717 
	C71.896736,194.828827 70.562759,197.073074 69.500229,197.493530 
	C56.026840,202.825165 42.351543,206.960464 27.560089,203.624161 
	C24.001837,202.821564 22.456959,201.178360 22.929834,197.429062 
	C23.530790,192.664276 23.793779,187.856857 24.440742,182.287231 
	C25.818834,172.014725 26.958672,162.522812 28.414280,153.018875 
	C29.152874,153.004578 29.575693,153.002289 29.998722,153.399765 
	C29.997726,154.865448 29.996521,155.931366 29.995316,156.997284 
	C29.791567,157.872116 29.141886,158.978470 29.456408,159.584213 
	C31.503954,163.527618 31.538504,166.217804 28.173376,170.291870 
	C25.619455,173.383835 26.598394,179.393875 26.004576,185.001297 
	C25.710329,188.681900 25.398649,191.464890 25.128275,194.251923 
	C24.840715,197.216095 24.575951,200.195099 28.997791,200.004883 
	C30.086273,200.339569 31.174753,200.674271 32.710640,201.387451 
	C38.439785,201.844025 43.721523,201.922073 49.003258,202.000137 
z"/>
<path fill="#2C4364" opacity="1.000000" stroke="none" 
	d="
M191.659180,131.186127 
	C191.972687,131.225357 192.286209,131.264572 193.162384,131.122650 
	C196.468750,129.654388 199.212433,128.367279 202.105286,127.409042 
	C202.857513,129.165573 203.460587,130.593246 204.063644,132.020920 
	C192.311951,141.046722 178.836884,141.830841 164.411133,139.666351 
	C163.986237,137.418228 164.010910,135.722137 164.502197,134.003601 
	C174.002335,134.355286 183.054489,134.907150 191.659180,131.186127 
z"/>
<path fill="#FBDCE3" opacity="1.000000" stroke="none" 
	d="
M49.000389,112.813217 
	C49.750603,119.370842 49.331108,120.036392 43.347336,120.889175 
	C38.506664,121.579056 33.634312,122.046669 28.877512,122.601044 
	C27.635712,120.480408 26.481642,118.509598 25.162477,116.227119 
	C25.552214,110.061172 29.966587,108.676552 34.630775,108.151520 
	C35.240986,110.658005 35.767323,112.643761 36.586849,114.500076 
	C36.695908,114.747108 38.958317,114.565094 39.085983,114.192261 
	C39.647408,112.552704 39.807934,110.772720 40.070999,109.037140 
	C40.117222,108.732193 39.959019,108.396263 39.895226,108.074638 
	C44.412296,106.433830 46.980476,108.830727 49.000389,112.813217 
z"/>
<path fill="#6B91B7" opacity="1.000000" stroke="none" 
	d="
M33.383690,55.162678 
	C33.625885,50.933014 33.868080,46.703354 34.708580,42.192909 
	C38.198441,40.255478 41.089996,38.598831 44.198357,37.239441 
	C50.281803,38.863224 55.142376,41.433456 56.585617,47.812363 
	C48.575737,50.326336 40.979713,52.744507 33.383690,55.162678 
z"/>
<path fill="#7A8CA2" opacity="1.000000" stroke="none" 
	d="
M197.157120,208.493225 
	C194.363846,208.424591 191.570572,208.355972 188.299423,207.821686 
	C186.986511,206.475159 186.151459,205.594315 185.316422,204.713455 
	C185.316422,204.713455 185.259399,204.736725 185.306671,204.378387 
	C184.613708,203.250717 183.873459,202.481400 183.133209,201.712097 
	C183.133194,201.712097 183.156540,201.333801 182.977173,200.843018 
	C182.569611,197.901108 182.341431,195.449982 182.451752,192.933365 
	C184.355179,190.602753 185.708633,188.136353 187.583679,186.166412 
	C188.393509,185.315567 190.393585,185.053482 191.635025,185.372391 
	C192.321915,185.548813 192.762238,187.444595 192.957123,188.624237 
	C193.411240,191.372986 192.774551,194.752792 194.165970,196.797607 
	C196.698898,200.520004 198.174164,204.066376 197.157120,208.493225 
z"/>
<path fill="#526688" opacity="1.000000" stroke="none" 
	d="
M128.057007,50.671814 
	C126.027061,47.345516 123.553055,43.849190 122.363136,39.959988 
	C121.437576,36.934837 120.256302,35.971104 117.275497,35.956657 
	C110.346687,35.923084 103.419296,35.596695 95.891479,35.642250 
	C94.188942,35.262096 93.086243,34.628662 91.972908,33.591328 
	C91.492172,31.996632 91.022064,30.805834 90.551956,29.615036 
	C90.551956,29.615038 90.551216,29.428480 90.967018,29.141594 
	C92.622192,28.747217 93.879089,28.450096 95.098099,28.562817 
	C103.399712,29.330437 111.694687,30.171190 119.988739,31.018364 
	C122.482239,31.273058 124.965996,31.623144 127.454216,31.929529 
	C127.632545,33.018936 127.810875,34.108341 127.554047,35.582584 
	C124.812401,35.912434 123.597786,36.556293 124.613480,39.214249 
	C125.835869,42.413116 126.830009,45.699196 127.922966,48.947517 
	C128.004013,49.409195 128.085052,49.870869 128.057007,50.671814 
z"/>
<path fill="#B5BFC8" opacity="1.000000" stroke="none" 
	d="
M178.946960,178.040161 
	C175.251221,178.069656 171.555466,178.099152 167.463348,178.086151 
	C166.427734,174.041626 165.771210,170.042191 165.173401,166.033981 
	C165.106537,165.585678 165.301315,164.705734 165.495132,164.669510 
	C168.903503,164.032104 172.315720,163.357025 175.759003,162.985886 
	C177.944290,162.750320 180.222305,162.943008 180.107635,166.982208 
	C179.681641,171.242783 179.314301,174.641464 178.946960,178.040161 
z"/>
<path fill="#BAC3CB" opacity="1.000000" stroke="none" 
	d="
M181.143768,167.083466 
	C185.190399,167.180878 189.259216,167.076874 193.267960,167.518280 
	C194.261993,167.627731 195.844833,169.532227 195.808304,170.563828 
	C195.681870,174.133179 194.960602,177.681442 193.808868,181.601654 
	C189.440231,181.982544 185.728485,181.999496 181.973877,181.597443 
	C181.668610,176.480087 181.406189,171.781769 181.143768,167.083466 
z"/>
<path fill="#F5FAFA" opacity="1.000000" stroke="none" 
	d="
M66.226471,64.989220 
	C68.004181,64.989220 69.781883,64.989220 71.664330,64.989220 
	C70.439781,71.770645 68.284294,73.377602 63.131241,71.416595 
	C61.813385,70.915085 60.434772,69.218208 60.063755,67.812042 
	C58.196587,60.735405 52.291252,58.014477 46.414150,61.937710 
	C45.901562,62.279892 45.943306,64.213440 46.396099,65.042831 
	C46.928696,66.018387 48.191196,66.595451 49.736965,67.820763 
	C47.154667,68.848503 45.397526,69.547836 43.436729,70.328217 
	C45.107651,73.592972 46.682976,76.670937 48.258301,79.748909 
	C47.970207,80.097542 47.682117,80.446175 47.394024,80.794815 
	C45.969685,80.104942 44.545349,79.415070 43.087784,77.962334 
	C42.274994,74.210167 41.846386,71.066322 40.617207,68.275017 
	C39.386829,65.480980 39.454441,63.280560 41.894096,61.114285 
	C44.267105,60.366955 46.264660,59.575771 48.296558,58.885700 
	C56.658875,56.045723 59.319294,57.498585 61.556091,65.675072 
	C61.961510,67.157074 63.387779,68.359802 64.342766,69.691460 
	C64.970665,68.124046 65.598564,66.556633 66.226471,64.989220 
z"/>
<path fill="#254767" opacity="1.000000" stroke="none" 
	d="
M33.268044,55.524300 
	C40.979713,52.744507 48.575737,50.326336 56.967850,47.886787 
	C58.541588,47.880886 59.319241,47.896366 60.096893,47.911850 
	C61.034626,49.684700 61.972359,51.457554 62.545906,53.612373 
	C61.326912,54.395924 60.345188,55.300468 59.636814,55.121723 
	C52.076244,53.213928 45.697956,56.842342 38.744411,59.333134 
	C37.274651,60.252197 36.125294,61.138420 34.975933,62.024647 
	C34.368088,59.978405 33.760242,57.932159 33.268044,55.524300 
z"/>
<path fill="#364A69" opacity="1.000000" stroke="none" 
	d="
M127.503624,31.576172 
	C124.965996,31.623144 122.482239,31.273058 119.988739,31.018364 
	C111.694687,30.171190 103.399712,29.330437 95.098099,28.562817 
	C93.879089,28.450096 92.622192,28.747217 91.035355,29.078110 
	C90.589722,25.799793 92.502579,24.570042 95.720093,24.937138 
	C103.523102,25.827410 111.317169,26.798975 119.126205,27.631092 
	C120.520714,27.779692 122.244087,26.870529 123.329514,27.416376 
	C124.962463,28.237556 126.166595,29.911444 127.503624,31.576172 
z"/>
<path fill="#FCE6E8" opacity="1.000000" stroke="none" 
	d="
M28.098507,153.030884 
	C26.958672,162.522812 25.818834,172.014725 24.450924,181.845398 
	C21.754194,181.442795 19.204372,180.891907 16.847837,179.887512 
	C15.471124,179.300735 14.192253,178.136566 13.334863,176.907455 
	C13.100988,176.572174 14.552505,175.061203 15.583132,174.047867 
	C23.784790,174.198578 23.603333,174.188705 24.039448,166.177963 
	C24.495794,157.795593 25.348867,149.434830 26.106888,140.099594 
	C26.902592,141.794800 27.286480,142.612656 27.827927,144.172684 
	C28.023157,147.620209 28.060831,150.325546 28.098507,153.030884 
z"/>
<path fill="#F4F9F9" opacity="1.000000" stroke="none" 
	d="
M109.170631,88.944923 
	C109.239082,92.047264 109.307541,95.149612 109.266075,98.639999 
	C108.437706,97.706474 107.633751,96.423149 107.021309,95.054161 
	C106.154526,93.116631 105.429070,91.115868 104.643196,89.142136 
	C104.092255,89.253685 103.541306,89.365242 102.990364,89.476791 
	C102.990364,93.731590 102.990364,97.986382 102.990364,102.908333 
	C101.814117,102.908333 100.086754,102.908333 97.902939,102.858673 
	C99.200333,94.099670 100.954185,85.390320 103.258774,76.418289 
	C103.809502,79.610931 103.809502,83.066261 103.809502,86.521599 
	C104.096161,86.792213 104.382820,87.062828 104.669472,87.333443 
	C105.725380,85.886909 106.781288,84.440384 107.914917,83.379501 
	C108.385292,85.491737 108.777962,87.218330 109.170631,88.944923 
z"/>
<path fill="#808D9D" opacity="1.000000" stroke="none" 
	d="
M182.016724,182.016449 
	C185.728485,181.999496 189.440231,181.982544 193.619995,181.934235 
	C192.851135,189.042725 196.087372,194.487503 200.491699,199.664398 
	C203.978119,203.762360 203.127655,206.097122 197.514008,208.375717 
	C198.174164,204.066376 196.698898,200.520004 194.165970,196.797607 
	C192.774551,194.752792 193.411240,191.372986 192.957123,188.624237 
	C192.762238,187.444595 192.321915,185.548813 191.635025,185.372391 
	C190.393585,185.053482 188.393509,185.315567 187.583679,186.166412 
	C185.708633,188.136353 184.355179,190.602753 182.411011,192.477066 
	C182.026764,188.729660 182.021744,185.373062 182.016724,182.016449 
z"/>
<path fill="#7691AD" opacity="1.000000" stroke="none" 
	d="
M39.064812,59.300293 
	C45.697956,56.842342 52.076244,53.213928 59.636814,55.121723 
	C60.345188,55.300468 61.326912,54.395924 62.519314,53.960739 
	C63.913319,57.360676 64.969734,60.794224 66.126312,64.608490 
	C65.598564,66.556633 64.970665,68.124046 64.342766,69.691460 
	C63.387779,68.359802 61.961510,67.157074 61.556091,65.675072 
	C59.319294,57.498585 56.658875,56.045723 48.296558,58.885700 
	C46.264660,59.575771 44.267105,60.366955 41.540012,61.077057 
	C40.239117,60.461750 39.651962,59.881023 39.064812,59.300293 
z"/>
<path fill="#CE606C" opacity="1.000000" stroke="none" 
	d="
M162.829437,46.322960 
	C162.606445,43.509331 164.242050,43.734299 166.293549,43.935486 
	C174.102386,44.701283 180.984161,42.400635 186.762497,37.081070 
	C188.004211,35.937939 188.889282,34.407402 190.242218,33.042076 
	C189.570740,41.116421 185.953201,44.560688 175.090714,47.098495 
	C173.580551,47.371624 172.771301,47.622585 171.962067,47.873550 
	C170.077286,47.817295 168.192520,47.761036 165.712219,47.521500 
	C164.747437,47.284985 164.378143,47.231750 164.008865,47.178516 
	C163.846664,47.124977 163.684464,47.071442 163.218826,46.839409 
	C162.915390,46.660912 162.829437,46.322960 162.829437,46.322960 
z"/>
<path fill="#D7C3C8" opacity="1.000000" stroke="none" 
	d="
M161.956512,67.087357 
	C162.542969,66.535889 163.129425,65.984421 163.938599,65.779648 
	C164.480423,66.904518 164.842575,68.373795 165.112198,68.357002 
	C169.044403,68.112213 172.964264,67.668808 177.006836,67.636330 
	C177.365723,70.005806 177.604813,72.011742 177.450104,73.948204 
	C171.749954,73.914017 166.786087,69.785919 160.295364,72.091118 
	C164.865707,74.451157 168.481644,76.318352 172.054596,78.371346 
	C172.011612,78.557137 171.853073,78.904015 171.450378,78.880936 
	C169.196396,78.819122 167.345093,78.780380 165.224838,78.509827 
	C159.065338,75.082886 158.802887,74.170525 162.014435,68.529411 
	C162.216385,68.174690 161.985855,67.573746 161.956512,67.087357 
z"/>
<path fill="#566A88" opacity="1.000000" stroke="none" 
	d="
M82.618057,80.293259 
	C86.719879,82.064507 89.751526,84.921356 88.890442,89.693977 
	C88.219460,93.413002 86.019142,96.297737 81.522850,97.029205 
	C81.570091,91.568001 81.980209,86.092537 82.618057,80.293259 
z"/>
<path fill="#2F3F59" opacity="1.000000" stroke="none" 
	d="
M143.613525,83.962524 
	C147.314682,89.381111 150.684616,94.917740 153.898224,100.543671 
	C154.324860,101.290565 153.956863,102.491371 153.956863,103.987633 
	C148.660141,101.264908 145.256638,97.296349 142.579529,92.151062 
	C142.633514,89.327614 142.933502,86.718040 143.613525,83.962524 
z"/>
<path fill="#384960" opacity="1.000000" stroke="none" 
	d="
M200.444672,93.861404 
	C199.624573,94.127266 198.804474,94.393135 197.984375,94.658997 
	C197.774673,93.304909 197.228180,91.902519 197.414246,90.605202 
	C198.172531,85.318535 199.155106,80.064034 200.031204,74.405846 
	C201.686676,76.423515 203.365982,78.833031 204.976196,81.973877 
	C203.884369,85.769470 202.861603,88.833717 201.838837,91.897964 
	C201.838837,91.897964 201.936966,91.948128 201.645248,92.066925 
	C201.050583,92.744286 200.747635,93.302841 200.444672,93.861404 
z"/>
<path fill="#F5B6BB" opacity="1.000000" stroke="none" 
	d="
M173.794037,24.555359 
	C174.000748,27.896639 174.999649,31.924965 170.884598,32.492928 
	C168.684723,32.796558 166.112244,30.400469 163.373291,29.119183 
	C166.637390,22.657753 167.749771,22.156376 173.794037,24.555359 
z"/>
<path fill="#6D89A3" opacity="1.000000" stroke="none" 
	d="
M38.744411,59.333134 
	C39.651962,59.881023 40.239117,60.461750 41.180351,61.079704 
	C39.454441,63.280560 39.386829,65.480980 40.617207,68.275017 
	C41.846386,71.066322 42.274994,74.210167 43.032589,77.617828 
	C41.657043,77.160797 39.584320,76.580635 39.081593,75.355980 
	C37.418934,71.305695 36.322865,67.022827 34.992641,62.426933 
	C36.125294,61.138420 37.274651,60.252197 38.744411,59.333134 
z"/>
<path fill="#ECF5F8" opacity="1.000000" stroke="none" 
	d="
M181.973877,181.597427 
	C182.021744,185.373062 182.026764,188.729660 182.072510,192.542572 
	C182.341431,195.449982 182.569611,197.901108 182.884384,200.677765 
	C181.165634,200.742676 179.360275,200.482025 177.193954,200.056427 
	C177.734100,196.884659 179.139267,193.922424 179.410126,190.859879 
	C179.757248,186.935211 179.191513,182.929825 178.983032,178.499695 
	C179.314301,174.641464 179.681641,171.242783 180.139435,167.398956 
	C180.229904,166.953812 180.687180,167.003204 180.915466,167.043335 
	C181.406189,171.781769 181.668610,176.480087 181.973877,181.597427 
z"/>
<path fill="#F4F3FA" opacity="1.000000" stroke="none" 
	d="
M204.427490,132.020294 
	C203.460587,130.593246 202.857513,129.165573 202.257050,127.094742 
	C201.830109,125.309265 201.400543,124.166939 200.970978,123.024620 
	C201.733902,121.954697 202.496841,120.884773 203.551636,119.405548 
	C204.339569,121.099541 204.986542,122.490479 205.329453,123.227699 
	C208.723740,124.025215 211.708405,124.726486 214.872711,125.764313 
	C215.052368,126.100861 215.020508,126.579613 214.605438,126.833939 
	C211.938492,127.425186 209.686584,127.762115 206.974396,128.167908 
	C206.974396,129.076752 206.974396,130.538330 206.974396,131.999908 
	C206.246704,132.006500 205.519028,132.013092 204.427490,132.020294 
z"/>
<path fill="#57667F" opacity="1.000000" stroke="none" 
	d="
M111.897766,114.417580 
	C115.188591,115.568863 118.087555,118.560074 122.495239,116.038849 
	C123.793472,120.329460 121.595734,121.997589 117.590950,122.019020 
	C112.835350,122.044472 111.718941,120.632530 111.897766,114.417580 
z"/>
<path fill="#FBDFE4" opacity="1.000000" stroke="none" 
	d="
M72.180466,164.947678 
	C72.915230,166.959625 74.734497,169.375854 74.165649,170.901855 
	C72.863403,174.395248 69.220428,174.199631 65.401276,173.744568 
	C64.543266,172.651108 64.274460,171.825424 64.306107,170.966293 
	C65.061485,170.371063 65.516403,169.809265 66.319992,169.139252 
	C68.505936,167.669922 70.343201,166.308807 72.180466,164.947678 
z"/>
<path fill="#758FA7" opacity="1.000000" stroke="none" 
	d="
M60.036201,47.566032 
	C59.319241,47.896366 58.541588,47.880886 57.381706,47.790985 
	C55.142376,41.433456 50.281803,38.863224 44.182716,36.938820 
	C44.557842,35.550117 45.165417,34.759289 45.772991,33.968464 
	C46.883087,34.884308 47.854916,36.239094 49.127258,36.639893 
	C54.588310,38.360172 57.711105,42.311501 60.036201,47.566032 
z"/>
<path fill="#384A61" opacity="1.000000" stroke="none" 
	d="
M149.075043,137.490784 
	C149.493210,137.078293 149.931702,137.049515 151.054428,136.986710 
	C153.148239,136.567596 154.557800,136.182495 156.213654,135.877426 
	C156.628311,135.995544 156.796707,136.033630 157.086792,136.368362 
	C157.561646,138.120468 157.914810,139.575912 158.267975,141.031372 
	C158.267960,141.031372 158.094742,141.454910 157.745911,141.680725 
	C156.882172,142.099762 156.367249,142.292999 155.852341,142.486221 
	C151.317291,144.293549 149.751846,141.749939 149.075043,137.490784 
z"/>
<path fill="#496385" opacity="1.000000" stroke="none" 
	d="
M91.983543,33.995224 
	C93.086243,34.628662 94.188942,35.262096 95.615341,35.940479 
	C93.244553,39.631828 90.550064,43.278233 87.520149,46.973423 
	C88.435944,42.916683 89.687172,38.811153 91.192459,34.355125 
	C91.625534,34.001495 91.804535,33.998360 91.983543,33.995224 
z"/>
<path fill="#3D4355" opacity="1.000000" stroke="none" 
	d="
M177.843918,74.017670 
	C177.604813,72.011742 177.365723,70.005806 177.131668,67.364761 
	C177.441620,66.481880 177.746521,66.234116 178.051422,65.986343 
	C178.733994,66.599655 179.416580,67.212959 180.283401,68.044952 
	C181.899231,72.103554 182.873001,75.870018 177.994904,78.918259 
	C175.428589,78.977371 173.640823,78.940697 171.853073,78.904015 
	C171.853073,78.904015 172.011612,78.557137 172.404236,78.342102 
	C174.479218,76.757271 176.161560,75.387466 177.843918,74.017670 
z"/>
<path fill="#576882" opacity="1.000000" stroke="none" 
	d="
M81.998985,113.270103 
	C85.442299,113.315247 88.758018,113.655739 92.509453,113.988281 
	C93.556541,117.563156 91.414139,119.205757 88.450974,118.759354 
	C85.616997,118.332420 81.174332,118.884949 81.998985,113.270103 
z"/>
<path fill="#2A4F66" opacity="1.000000" stroke="none" 
	d="
M177.824493,65.681976 
	C177.746521,66.234116 177.441620,66.481880 177.011887,67.001221 
	C172.964264,67.668808 169.044403,68.112213 165.112198,68.357002 
	C164.842575,68.373795 164.480423,66.904518 164.239319,65.796310 
	C168.744095,65.436714 173.170837,65.407158 177.824493,65.681976 
z"/>
<path fill="#E4F9FD" opacity="1.000000" stroke="none" 
	d="
M113.832596,171.999557 
	C113.631943,171.199493 113.431282,170.399429 113.269867,169.062515 
	C113.870071,167.987961 114.431046,167.450272 114.992020,166.912582 
	C120.035652,168.224319 118.895958,172.785965 119.843269,176.623108 
	C118.140228,177.007156 116.481674,176.995392 114.357971,176.567688 
	C113.872734,174.767670 113.852661,173.383606 113.832596,171.999557 
z"/>
<path fill="#3A4456" opacity="1.000000" stroke="none" 
	d="
M161.678177,67.114609 
	C161.985855,67.573746 162.216385,68.174690 162.014435,68.529411 
	C158.802887,74.170525 159.065338,75.082886 164.721085,78.585938 
	C163.132355,78.978043 161.778397,79.062225 160.424454,79.146408 
	C159.216858,77.019371 158.009277,74.892326 156.709717,72.450287 
	C157.106033,69.411896 157.999924,67.076897 161.678177,67.114609 
z"/>
<path fill="#30435A" opacity="1.000000" stroke="none" 
	d="
M207.226776,132.187881 
	C206.974396,130.538330 206.974396,129.076752 206.974396,128.167908 
	C209.686584,127.762115 211.938492,127.425186 214.584549,127.072937 
	C215.232941,128.706482 215.487152,130.355347 215.741379,132.004211 
	C212.987305,132.128098 210.233231,132.251984 207.226776,132.187881 
z"/>
<path fill="#6893A6" opacity="1.000000" stroke="none" 
	d="
M101.812477,201.434784 
	C104.810333,202.050415 107.580147,205.339111 111.403107,202.061035 
	C110.753609,204.369232 109.759407,206.721863 108.370438,208.845367 
	C107.849586,208.356476 107.723503,208.096741 107.597420,207.836990 
	C107.388496,208.299011 107.179581,208.761032 106.970665,209.223053 
	C106.181564,208.842072 105.392464,208.461090 104.282166,207.659729 
	C103.614891,206.441589 103.268814,205.643845 102.922729,204.846100 
	C102.561234,203.821136 102.199738,202.796158 101.812477,201.434784 
z"/>
<path fill="#6893A6" opacity="1.000000" stroke="none" 
	d="
M100.568558,183.698883 
	C100.909737,188.708466 100.939804,193.990768 100.938324,199.759766 
	C100.425369,201.827744 99.943954,203.409012 99.462540,204.990280 
	C98.968910,204.934555 98.475281,204.878830 97.981651,204.823105 
	C98.740242,197.872589 99.498833,190.922089 100.568558,183.698883 
z"/>
<path fill="#67788D" opacity="1.000000" stroke="none" 
	d="
M45.681755,33.645206 
	C45.165417,34.759289 44.557842,35.550117 43.965912,36.641563 
	C41.089996,38.598831 38.198441,40.255478 34.906902,41.912827 
	C35.330509,39.997967 36.154099,38.082409 37.385902,35.217384 
	C39.150951,35.109875 41.330536,29.748121 45.681755,33.645206 
z"/>
<path fill="#E9F3F7" opacity="1.000000" stroke="none" 
	d="
M158.604095,141.030273 
	C157.914810,139.575912 157.561646,138.120468 157.311218,136.088715 
	C159.274765,135.008072 161.135544,134.503723 163.256165,134.005432 
	C163.689178,134.016342 163.862366,134.021194 164.035583,134.026062 
	C164.010910,135.722137 163.986237,137.418228 164.017807,139.536102 
	C162.362762,140.315002 160.651489,140.672073 158.604095,141.030273 
z"/>
<path fill="#CF8C99" opacity="1.000000" stroke="none" 
	d="
M39.582714,108.042908 
	C39.959019,108.396263 40.117222,108.732193 40.070999,109.037140 
	C39.807934,110.772720 39.647408,112.552704 39.085983,114.192261 
	C38.958317,114.565094 36.695908,114.747108 36.586849,114.500076 
	C35.767323,112.643761 35.240986,110.658005 34.819958,108.415581 
	C35.454453,108.082039 35.891941,108.045639 36.917149,107.994400 
	C37.677193,107.940361 37.849518,107.901169 38.021839,107.861984 
	C38.437962,107.911713 38.854080,107.961441 39.582714,108.042908 
z"/>
<path fill="#606B82" opacity="1.000000" stroke="none" 
	d="
M126.147964,99.624329 
	C125.681023,99.522064 125.361176,99.042747 125.024307,97.806137 
	C124.999771,93.356819 124.992249,89.664803 124.984726,85.972794 
	C125.440712,85.674576 125.896706,85.376366 126.633438,85.026413 
	C126.707809,89.732201 126.501434,94.489738 126.147964,99.624329 
z"/>
<path fill="#253C59" opacity="1.000000" stroke="none" 
	d="
M128.005707,48.494682 
	C126.830009,45.699196 125.835869,42.413116 124.613480,39.214249 
	C123.597786,36.556293 124.812401,35.912434 127.500061,35.997608 
	C127.950310,40.032482 128.019379,44.037163 128.005707,48.494682 
z"/>
<path fill="#6098B4" opacity="1.000000" stroke="none" 
	d="
M113.470657,172.094452 
	C113.852661,173.383606 113.872734,174.767670 113.941872,176.564240 
	C113.707413,179.387756 113.423889,181.798737 113.062004,184.602112 
	C109.846161,180.695053 111.434837,176.441788 113.470657,172.094452 
z"/>
<path fill="#E7939F" opacity="1.000000" stroke="none" 
	d="
M66.192810,144.505798 
	C64.822792,141.545807 63.291428,138.221725 62.072857,134.786697 
	C61.654091,133.606216 62.016685,132.148560 62.047859,130.370804 
	C63.433647,134.648788 64.793900,139.373489 66.192810,144.505798 
z"/>
<path fill="#FBE9EA" opacity="1.000000" stroke="none" 
	d="
M158.098328,33.195793 
	C156.439026,37.460941 155.913574,41.452805 160.764679,44.732967 
	C159.272858,44.942589 157.660599,44.824577 155.932266,44.698074 
	C155.932266,41.105938 155.932266,37.917141 155.966125,34.364174 
	C156.000000,34.000000 155.996246,34.004951 155.996246,34.004951 
	C156.588181,33.740379 157.180099,33.475811 158.098328,33.195793 
z"/>
<path fill="#E7939F" opacity="1.000000" stroke="none" 
	d="
M64.005646,170.999725 
	C64.274460,171.825424 64.543266,172.651108 64.984863,173.761200 
	C65.157646,174.045609 65.095451,174.525299 65.060562,174.764648 
	C63.764645,175.648956 62.503616,176.293884 60.068623,177.539230 
	C60.848866,174.006882 61.420757,171.417786 62.072609,168.358505 
	C62.152565,167.888321 62.318378,167.766708 62.504562,168.006897 
	C63.129047,169.164627 63.567348,170.082169 64.005646,170.999725 
z"/>
<path fill="#E9EBF7" opacity="1.000000" stroke="none" 
	d="
M202.208847,91.895325 
	C202.861603,88.833717 203.884369,85.769470 205.027863,82.344299 
	C205.740204,82.449493 206.331802,82.915611 206.957428,83.689804 
	C205.520569,86.629486 204.049713,89.261086 202.208847,91.895325 
z"/>
<path fill="#D9969F" opacity="1.000000" stroke="none" 
	d="
M72.096283,164.610321 
	C70.343201,166.308807 68.505936,167.669922 66.071152,168.928040 
	C65.321198,168.208405 65.168762,167.591766 65.016319,166.975143 
	C65.818649,166.732254 66.620987,166.489380 68.059418,166.067169 
	C69.122360,164.924164 69.549202,163.960495 69.976044,162.996826 
	C70.122093,162.458649 70.268143,161.920471 70.633545,161.204559 
	C71.239296,162.108871 71.625694,163.190933 72.096283,164.610321 
z"/>
<path fill="#E7939F" opacity="1.000000" stroke="none" 
	d="
M62.123375,129.542145 
	C57.677017,128.103256 59.322170,124.158386 58.994965,120.466888 
	C60.043224,123.070480 61.087791,126.102257 62.123375,129.542145 
z"/>
<path fill="#E8F6F9" opacity="1.000000" stroke="none" 
	d="
M95.498894,153.021164 
	C96.200813,155.348495 96.562820,157.761673 97.002190,160.570114 
	C92.189774,158.861679 91.859604,157.510742 95.498894,153.021164 
z"/>
<path fill="#508CA4" opacity="1.000000" stroke="none" 
	d="
M128.067383,167.610489 
	C125.914772,167.963135 123.735519,167.963135 120.530693,167.963135 
	C123.448181,166.022186 125.175629,164.872940 127.283524,163.353638 
	C128.109482,162.980286 128.555008,162.976990 129.000534,162.973709 
	C129.198685,162.987076 129.396851,163.000443 129.892303,163.035690 
	C129.473297,164.457657 128.757004,165.857742 128.067383,167.610489 
z"/>
<path fill="#E7939F" opacity="1.000000" stroke="none" 
	d="
M70.664444,159.646744 
	C67.850029,158.171326 66.062485,155.941620 67.850281,152.160126 
	C69.002602,154.382065 69.855751,156.835251 70.664444,159.646744 
z"/>
<path fill="#E8F6F9" opacity="1.000000" stroke="none" 
	d="
M104.745247,146.043457 
	C102.668533,147.650833 100.185997,149.230759 97.384277,150.943542 
	C97.312874,146.260193 101.126122,146.569290 104.745247,146.043457 
z"/>
<path fill="#B7C3CC" opacity="1.000000" stroke="none" 
	d="
M129.152695,206.782654 
	C129.644760,205.195175 130.500610,203.729034 131.643753,202.099609 
	C133.281586,204.639877 133.101410,206.599411 129.152695,206.782654 
z"/>
<path fill="#E7939F" opacity="1.000000" stroke="none" 
	d="
M58.929420,118.641159 
	C57.921291,117.783073 56.945213,116.566719 55.918163,115.054428 
	C56.898617,115.933296 57.930046,117.108093 58.929420,118.641159 
z"/>
<path fill="#ECF5F8" opacity="1.000000" stroke="none" 
	d="
M185.220032,205.091248 
	C186.151459,205.594315 186.986511,206.475159 187.938080,207.661377 
	C184.975098,209.601395 184.879669,207.734344 185.220032,205.091248 
z"/>
<path fill="#606B82" opacity="1.000000" stroke="none" 
	d="
M124.029327,210.356476 
	C125.049858,209.167831 126.163765,208.213486 127.604919,207.421844 
	C127.628143,208.057755 127.324135,208.530960 126.806366,209.108093 
	C126.319069,209.396820 126.131203,209.646179 125.778770,210.034729 
	C125.350876,210.394958 125.173210,210.680557 124.995544,210.966141 
	C124.704605,210.841019 124.413658,210.715897 124.029327,210.356476 
z"/>
<path fill="#B7C3CC" opacity="1.000000" stroke="none" 
	d="
M127.020119,209.004150 
	C127.324135,208.530960 127.628143,208.057755 127.922028,207.283051 
	C127.911888,206.981537 128.260635,206.844360 128.441879,206.811600 
	C128.718796,206.956528 128.814468,207.134201 128.936432,208.044830 
	C128.988297,209.362762 129.013885,209.947723 129.039459,210.532700 
	C128.572479,211.010681 128.105515,211.488663 127.321457,211.627090 
	C127.009621,210.526413 127.014870,209.765274 127.020119,209.004150 
z"/>
<path fill="#364A69" opacity="1.000000" stroke="none" 
	d="
M91.972908,33.591328 
	C91.804535,33.998360 91.625534,34.001495 91.178925,34.026291 
	C90.708252,32.793072 90.505188,31.538189 90.427040,29.949171 
	C91.022064,30.805834 91.492172,31.996632 91.972908,33.591328 
z"/>
<path fill="#E7939F" opacity="1.000000" stroke="none" 
	d="
M68.008072,150.648621 
	C67.476692,149.822083 66.957710,148.646271 66.692833,147.243042 
	C67.304771,148.110199 67.662621,149.204773 68.008072,150.648621 
z"/>
<path fill="#ECF5F8" opacity="1.000000" stroke="none" 
	d="
M183.086319,202.107849 
	C183.873459,202.481400 184.613708,203.250717 185.342575,204.359009 
	C184.567261,203.966522 183.803345,203.235077 183.086319,202.107849 
z"/>
<path fill="#FBE9EA" opacity="1.000000" stroke="none" 
	d="
M172.138168,48.138542 
	C172.771301,47.622585 173.580551,47.371624 174.712997,47.189259 
	C174.128891,47.639748 173.221588,48.021641 172.138168,48.138542 
z"/>
<path fill="#F4F9F9" opacity="1.000000" stroke="none" 
	d="
M109.747971,108.185577 
	C110.326462,109.101631 110.669464,110.197327 110.969444,111.642212 
	C110.455109,110.782661 109.983803,109.573944 109.747971,108.185577 
z"/>
<path fill="#465162" opacity="1.000000" stroke="none" 
	d="
M102.599915,204.991425 
	C103.268814,205.643845 103.614891,206.441589 103.961502,207.567780 
	C103.400398,206.976410 102.838753,206.056580 102.599915,204.991425 
z"/>
<path fill="#ECF5F8" opacity="1.000000" stroke="none" 
	d="
M173.406723,203.978485 
	C173.508133,203.368195 173.930817,202.705460 174.668640,201.970673 
	C174.565201,202.574432 174.146591,203.250214 173.406723,203.978485 
z"/>
<path fill="#F4F9F9" opacity="1.000000" stroke="none" 
	d="
M109.334503,101.356613 
	C109.620880,102.131943 109.746017,103.162605 109.820900,104.582718 
	C109.571510,103.852097 109.372375,102.732018 109.334503,101.356613 
z"/>
<path fill="#E9F3F7" opacity="1.000000" stroke="none" 
	d="
M155.981171,142.785034 
	C156.367249,142.292999 156.882172,142.099762 157.675522,141.898422 
	C157.339310,142.288162 156.724655,142.686005 155.981171,142.785034 
z"/>
<path fill="#99B4BC" opacity="1.000000" stroke="none" 
	d="
M107.058807,209.410126 
	C107.179581,208.761032 107.388496,208.299011 107.597420,207.836990 
	C107.723503,208.096741 107.849586,208.356476 108.001938,208.893066 
	C107.734451,209.312332 107.440704,209.454758 107.058807,209.410126 
z"/>
<path fill="#FBE9EA" opacity="1.000000" stroke="none" 
	d="
M160.442795,31.007538 
	C160.315826,31.529440 159.906540,32.100426 159.233948,32.743439 
	C159.367264,32.229187 159.763870,31.642902 160.442795,31.007538 
z"/>
<path fill="#6893A6" opacity="1.000000" stroke="none" 
	d="
M101.998726,182.678192 
	C101.762840,183.000031 101.526283,182.997604 100.932243,182.977249 
	C100.692513,182.225327 100.810265,181.491302 101.049011,180.403778 
	C101.446014,180.818161 101.722038,181.586060 101.998726,182.678192 
z"/>
<path fill="#3A4456" opacity="1.000000" stroke="none" 
	d="
M126.806366,209.108093 
	C127.014870,209.765274 127.009621,210.526413 127.036804,211.666779 
	C127.069237,212.046036 127.049164,211.988052 126.697739,212.135925 
	C126.164146,212.432571 125.981987,212.581360 125.799820,212.730164 
	C125.699684,212.499603 125.599556,212.269043 125.723587,211.357391 
	C125.974831,210.437561 126.001907,210.198822 126.028992,209.960098 
	C126.131203,209.646179 126.319069,209.396820 126.806366,209.108093 
z"/>
<path fill="#6098B4" opacity="1.000000" stroke="none" 
	d="
M131.347122,162.953125 
	C131.332001,162.411697 131.663284,161.841476 132.350250,161.241531 
	C132.368484,161.782669 132.031021,162.353516 131.347122,162.953125 
z"/>
<path fill="#E8F6F9" opacity="1.000000" stroke="none" 
	d="
M96.830795,151.161285 
	C96.869003,151.553833 96.648323,152.066040 96.166969,152.689240 
	C96.128166,152.293793 96.350044,151.787369 96.830795,151.161285 
z"/>
<path fill="#5D97B3" opacity="1.000000" stroke="none" 
	d="
M134.325623,150.621750 
	C133.940521,150.596252 133.451935,150.337112 133.196564,149.924438 
	C133.693893,149.976624 133.958008,150.182373 134.325623,150.621750 
z"/>
<path fill="#5D97B3" opacity="1.000000" stroke="none" 
	d="
M129.361176,210.348145 
	C129.013885,209.947723 128.988297,209.362762 129.001740,208.340424 
	C129.254807,208.656570 129.468842,209.410095 129.361176,210.348145 
z"/>
<path fill="#F5FAFA" opacity="1.000000" stroke="none" 
	d="
M59.011486,72.754944 
	C58.902077,72.589409 58.955784,72.422379 59.009491,72.255356 
	C59.064529,72.421387 59.119568,72.587418 59.011486,72.754944 
z"/>
<path fill="#E8F6F9" opacity="1.000000" stroke="none" 
	d="
M107.999184,145.114044 
	C107.765724,145.426407 107.205673,145.697327 106.328056,145.932556 
	C106.564529,145.622101 107.118568,145.347336 107.999184,145.114044 
z"/>
<path fill="#FBE9EA" opacity="1.000000" stroke="none" 
	d="
M156.002472,33.998093 
	C155.884460,33.858734 155.763977,33.721275 155.643494,33.583824 
	C155.725739,33.633583 155.807968,33.683342 155.943237,33.869026 
	C155.996246,34.004951 156.000000,34.000000 156.002472,33.998093 
z"/>
<path fill="#8D96A0" opacity="1.000000" stroke="none" 
	d="
M125.778770,210.034729 
	C126.001907,210.198822 125.974831,210.437561 125.756287,210.981750 
	C125.564819,211.287231 125.196274,211.275620 125.095909,211.120880 
	C125.173210,210.680557 125.350876,210.394958 125.778770,210.034729 
z"/>
<path fill="#8D96A0" opacity="1.000000" stroke="none" 
	d="
M126.009689,212.860352 
	C125.981987,212.581360 126.164146,212.432571 126.667053,212.136871 
	C126.731728,212.323471 126.475639,212.657013 126.009689,212.860352 
z"/>
<path fill="#FBE9EA" opacity="1.000000" stroke="none" 
	d="
M161.026367,45.328304 
	C161.262955,45.186092 161.488129,45.347549 161.643082,45.844231 
	C161.426468,45.924118 161.240494,45.741627 161.026367,45.328304 
z"/>
<path fill="#FBE9EA" opacity="1.000000" stroke="none" 
	d="
M162.608765,46.306282 
	C162.829437,46.322960 162.915390,46.660912 162.962845,46.828690 
	C162.714935,46.983509 162.455658,46.880157 162.092834,46.529083 
	C161.953232,46.371742 162.388107,46.289608 162.608765,46.306282 
z"/>
<path fill="#FBE9EA" opacity="1.000000" stroke="none" 
	d="
M164.203094,47.387775 
	C164.378143,47.231750 164.747437,47.284985 165.311981,47.549576 
	C165.137283,47.706303 164.767319,47.651669 164.203094,47.387775 
z"/>
<path fill="#FBDCE3" opacity="1.000000" stroke="none" 
	d="
M37.918457,107.712936 
	C37.849518,107.901169 37.677193,107.940361 37.242393,107.941788 
	C37.258308,107.790642 37.536690,107.677269 37.918457,107.712936 
z"/>
<path fill="#314561" opacity="1.000000" stroke="none" 
	d="
M173.940002,116.951920 
	C171.809402,116.951927 169.678772,116.951927 166.708206,116.951927 
	C167.179657,114.733688 167.592072,112.793266 168.401794,110.498169 
	C169.210510,110.224220 169.621918,110.304955 170.248062,110.594208 
	C171.312485,110.187836 172.162155,109.572937 173.147034,108.673889 
	C174.844971,107.564781 176.407715,106.739815 177.955109,105.621231 
	C177.612778,104.867729 177.285782,104.407845 177.085968,103.740356 
	C177.429794,103.277565 177.698425,103.101830 178.287186,103.203598 
	C178.707687,105.255058 178.860046,107.108459 179.014984,109.347191 
	C179.022614,110.502823 179.027664,111.273132 178.976837,112.097534 
	C178.920929,112.151634 178.773102,112.200195 178.509064,112.382568 
	C176.810028,114.027267 175.375015,115.489594 173.940002,116.951920 
z"/>
<path fill="#273958" opacity="1.000000" stroke="none" 
	d="
M177.970444,105.914848 
	C176.407715,106.739815 174.844971,107.564781 172.791611,108.712883 
	C171.593964,108.968567 170.886963,108.901115 169.994949,108.541389 
	C168.910553,108.151611 168.011169,108.054108 167.111771,107.956596 
	C166.674622,106.213585 166.237473,104.470573 166.319092,102.293793 
	C169.596802,101.722183 172.886078,103.926697 175.166412,99.891922 
	C176.835953,99.523804 178.139221,99.321045 179.366806,99.335503 
	C179.291107,99.552719 179.072968,99.957779 178.785126,100.148392 
	C178.337860,101.227837 178.178436,102.116684 178.019012,103.005531 
	C177.698425,103.101830 177.429794,103.277565 176.839920,103.665115 
	C176.152298,103.743896 175.837891,103.690308 175.523499,103.636719 
	C176.339142,104.396095 177.154800,105.155472 177.970444,105.914848 
z"/>
<path fill="#384660" opacity="1.000000" stroke="none" 
	d="
M189.999557,97.995064 
	C188.987000,100.728081 187.974442,103.461098 186.978668,106.596504 
	C186.995468,106.998894 186.995880,106.936783 186.627228,106.924026 
	C185.527969,107.008461 184.797363,107.105637 183.904144,106.904655 
	C183.346390,106.423561 182.951248,106.240639 182.411682,105.793259 
	C182.987961,103.458527 182.472626,101.676674 181.314499,99.962204 
	C182.731674,98.566353 183.838821,97.325470 184.945984,96.084579 
	C184.945984,96.084587 185.006165,96.037605 184.936523,96.424393 
	C185.646378,101.243858 188.662643,95.979065 189.999557,97.995064 
M183.653717,104.548126 
	C183.653717,104.548126 183.431824,104.429962 183.431824,104.429962 
	C183.431824,104.429962 183.472595,104.691986 183.653717,104.548126 
z"/>
<path fill="#FEF5F6" opacity="1.000000" stroke="none" 
	d="
M162.996338,133.999390 
	C161.135544,134.503723 159.274765,135.008072 157.189529,135.792068 
	C156.796707,136.033630 156.628311,135.995544 156.097961,135.696594 
	C155.535843,135.218887 155.292862,135.073730 155.007019,135.000275 
	C154.936508,134.514969 154.634644,133.744553 154.829559,133.586395 
	C158.869141,130.308731 157.888855,125.917206 157.798080,121.539955 
	C159.426483,124.816185 161.054871,128.092422 162.833755,132.019318 
	C162.988266,133.113129 162.992294,133.556259 162.996338,133.999390 
z"/>
<path fill="#EDEBF6" opacity="1.000000" stroke="none" 
	d="
M163.256165,134.005432 
	C162.992294,133.556259 162.988266,133.113129 162.987854,132.337738 
	C172.219879,131.698120 181.448288,131.390762 191.167938,131.134766 
	C183.054489,134.907150 174.002335,134.355286 164.502182,134.003601 
	C163.862366,134.021194 163.689178,134.016342 163.256165,134.005432 
z"/>
<path fill="#C8D7E6" opacity="1.000000" stroke="none" 
	d="
M191.298203,113.734627 
	C189.368698,114.538132 187.439178,115.341637 185.233322,116.260223 
	C186.977997,119.737183 183.932953,119.896576 180.479004,119.711288 
	C180.142899,118.963211 180.194778,118.541794 180.512634,117.906403 
	C181.158035,116.453674 181.537460,115.214897 182.419830,113.899048 
	C183.520065,112.786011 184.117386,111.750046 184.867706,111.106842 
	C185.778687,111.730057 186.548660,111.927597 187.292038,112.198181 
	C188.635818,112.687317 189.963684,113.220085 191.298203,113.734627 
z"/>
<path fill="#DBDBE9" opacity="1.000000" stroke="none" 
	d="
M184.937256,95.712273 
	C183.838821,97.325470 182.731674,98.566353 180.999329,99.880417 
	C179.940414,99.954987 179.506699,99.956383 179.072968,99.957779 
	C179.072968,99.957779 179.291107,99.552719 179.627380,99.167404 
	C180.561630,97.675362 181.159622,96.568626 181.757599,95.461884 
	C181.470749,95.285789 181.183884,95.109695 180.897018,94.933601 
	C180.095505,95.682854 179.293991,96.432098 179.546738,96.195831 
	C177.672668,94.868347 176.343445,93.926804 175.014221,92.985252 
	C178.047119,89.849052 180.699142,90.478920 184.937256,95.712273 
z"/>
<path fill="#344661" opacity="1.000000" stroke="none" 
	d="
M174.903442,93.307495 
	C176.343445,93.926804 177.672668,94.868347 179.546738,96.195831 
	C179.293991,96.432098 180.095505,95.682854 180.897018,94.933601 
	C181.183884,95.109695 181.470749,95.285789 181.757599,95.461884 
	C181.159622,96.568626 180.561630,97.675362 179.703064,98.950195 
	C178.139221,99.321045 176.835953,99.523804 174.890152,99.789520 
	C173.483673,99.244949 172.719711,98.637436 171.955750,98.029915 
	C172.901398,96.563194 173.847031,95.096474 174.903442,93.307495 
z"/>
<path fill="#2D4260" opacity="1.000000" stroke="none" 
	d="
M160.676453,79.446732 
	C161.778397,79.062225 163.132355,78.978043 164.990051,78.817749 
	C167.345093,78.780380 169.196396,78.819122 171.450378,78.880936 
	C173.640823,78.940697 175.428589,78.977371 177.663620,79.023430 
	C172.512390,82.373566 166.790955,82.757462 160.676453,79.446732 
z"/>
<path fill="#E2DFE9" opacity="1.000000" stroke="none" 
	d="
M200.628220,123.057922 
	C201.400543,124.166939 201.830109,125.309265 202.107895,126.765884 
	C199.212433,128.367279 196.468750,129.654388 193.360352,130.957626 
	C195.425598,128.346252 197.855530,125.718735 200.628220,123.057922 
z"/>
<path fill="#BFCAE0" opacity="1.000000" stroke="none" 
	d="
M171.607010,98.081528 
	C172.719711,98.637436 173.483673,99.244949 174.523895,99.954880 
	C172.886078,103.926697 169.596802,101.722183 166.432556,101.961044 
	C167.770920,100.752426 169.514587,99.442780 171.607010,98.081528 
z"/>
<path fill="#2E4161" opacity="1.000000" stroke="none" 
	d="
M191.574554,113.615837 
	C189.963684,113.220085 188.635818,112.687317 187.292038,112.198181 
	C186.548660,111.927597 185.778687,111.730057 184.906189,111.051056 
	C184.898880,109.929138 185.006119,109.255768 185.333908,108.491127 
	C185.993408,108.219864 186.432327,108.039864 187.150894,108.081696 
	C188.638306,108.855034 189.846100,109.406525 191.053879,109.958008 
	C193.586960,110.627037 193.394821,111.909828 191.574554,113.615837 
z"/>
<path fill="#1F324C" opacity="1.000000" stroke="none" 
	d="
M181.916901,113.976128 
	C181.537460,115.214897 181.158035,116.453674 180.247177,117.853119 
	C179.536118,117.997780 179.356461,117.981758 179.176819,117.965744 
	C178.986267,117.613457 178.795731,117.261162 178.314362,116.721161 
	C178.013412,116.359062 178.003281,116.184677 178.058228,115.676247 
	C178.339920,114.294861 178.556519,113.247528 178.773102,112.200195 
	C178.773102,112.200195 178.920929,112.151634 179.213654,112.176590 
	C179.920715,112.480843 180.335052,112.760132 180.875793,113.291801 
	C181.324875,113.713112 181.647583,113.882042 181.977234,114.017792 
	C181.984192,113.984604 181.916901,113.976128 181.916901,113.976128 
z"/>
<path fill="#DBDBE9" opacity="1.000000" stroke="none" 
	d="
M189.926727,97.622803 
	C188.662643,95.979065 185.646378,101.243858 184.898529,96.428207 
	C186.571426,96.446991 188.212662,96.848770 189.926727,97.622803 
z"/>
<path fill="#AABDDA" opacity="1.000000" stroke="none" 
	d="
M178.509064,112.382568 
	C178.556519,113.247528 178.339920,114.294861 177.764221,115.708466 
	C176.906982,116.383163 176.408829,116.691574 175.910690,116.999985 
	C175.471588,117.013962 175.032471,117.027931 174.266693,116.996910 
	C175.375015,115.489594 176.810028,114.027267 178.509064,112.382568 
z"/>
<path fill="#7182A2" opacity="1.000000" stroke="none" 
	d="
M190.773666,109.758194 
	C189.846100,109.406525 188.638306,108.855034 187.197800,107.853073 
	C186.965073,107.402603 186.995880,106.936783 186.995880,106.936783 
	C186.995880,106.936783 186.995468,106.998894 186.964630,106.997063 
	C188.120346,107.849617 189.306900,108.703995 190.773666,109.758194 
z"/>
<path fill="#DEE1ED" opacity="1.000000" stroke="none" 
	d="
M166.870514,108.135193 
	C168.011169,108.054108 168.910553,108.151611 169.953186,108.928909 
	C170.075363,109.867699 170.054337,110.126701 170.033310,110.385696 
	C169.621918,110.304955 169.210510,110.224220 168.486816,110.103806 
	C167.659424,109.480682 167.144348,108.897232 166.870514,108.135193 
z"/>
<path fill="#FDFEFE" opacity="1.000000" stroke="none" 
	d="
M154.639618,135.001434 
	C155.292862,135.073730 155.535843,135.218887 155.851685,135.616577 
	C154.557800,136.182495 153.148239,136.567596 151.372772,136.899994 
	C152.095337,136.232391 153.183777,135.617493 154.639618,135.001434 
z"/>
<path fill="#313A4D" opacity="1.000000" stroke="none" 
	d="
M175.976349,117.352982 
	C176.408829,116.691574 176.906982,116.383163 177.699127,116.042526 
	C178.003281,116.184677 178.013412,116.359062 178.019073,116.795502 
	C177.623779,118.001022 177.232986,118.944496 176.287399,121.227341 
	C176.137589,119.077461 176.089798,118.391724 175.976349,117.352982 
z"/>
<path fill="#3D4F66" opacity="1.000000" stroke="none" 
	d="
M179.112030,118.236603 
	C179.356461,117.981758 179.536118,117.997780 179.981201,118.067078 
	C180.194778,118.541794 180.142899,118.963211 180.099167,119.703018 
	C179.753967,119.516754 179.400620,119.012108 179.112030,118.236603 
z"/>
<path fill="#E9EBF7" opacity="1.000000" stroke="none" 
	d="
M200.786484,93.775009 
	C200.747635,93.302841 201.050583,92.744286 201.622803,92.016602 
	C201.637497,92.461197 201.382904,93.074913 200.786484,93.775009 
z"/>
<path fill="#FDFEFE" opacity="1.000000" stroke="none" 
	d="
M107.837204,82.993858 
	C106.781288,84.440384 105.725380,85.886909 104.669472,87.333443 
	C104.382820,87.062828 104.096161,86.792213 103.809502,86.521599 
	C103.809502,83.066261 103.809502,79.610931 103.450363,76.076187 
	C103.404434,73.911324 103.717628,71.825874 104.335052,69.123764 
	C104.667824,68.106903 104.696350,67.706711 104.724884,67.306519 
	C104.724884,67.306519 104.653580,67.134834 105.088318,67.062218 
	C106.294586,66.995468 107.066124,67.001335 107.908295,67.468872 
	C107.931686,72.951645 107.884445,77.972755 107.837204,82.993858 
z"/>
<path fill="#182D42" opacity="1.000000" stroke="none" 
	d="
M107.914917,83.379501 
	C107.884445,77.972755 107.931686,72.951645 107.984879,67.062225 
	C108.070221,62.785648 108.149605,59.377369 108.228981,55.969093 
	C108.820206,56.990517 109.920494,58.010426 109.923546,59.033600 
	C109.952599,68.793137 109.795822,78.553223 109.431519,88.629044 
	C108.777962,87.218330 108.385292,85.491737 107.914917,83.379501 
z"/>
<path fill="#50638B" opacity="1.000000" stroke="none" 
	d="
M124.679138,86.129440 
	C124.992249,89.664803 124.999771,93.356819 125.008377,97.505211 
	C120.742516,97.166603 118.955147,94.415146 120.716682,90.833542 
	C121.554413,89.130226 123.131432,87.790520 124.679138,86.129440 
z"/>
<path fill="#F4F9F9" opacity="1.000000" stroke="none" 
	d="
M107.824036,55.971008 
	C108.149605,59.377369 108.070221,62.785648 107.914246,66.600563 
	C107.066124,67.001335 106.294586,66.995468 105.136703,66.982849 
	C105.639938,63.308372 106.529518,59.640648 107.824036,55.971008 
z"/>
<path fill="#F4F9F9" opacity="1.000000" stroke="none" 
	d="
M104.507065,67.528030 
	C104.696350,67.706711 104.667824,68.106903 104.440689,68.738640 
	C104.257805,68.563301 104.273529,68.156418 104.507065,67.528030 
z"/>
<path fill="#E7939F" opacity="1.000000" stroke="none" 
	d="
M62.069672,167.949142 
	C60.488567,168.393509 58.990349,168.777054 57.123848,169.254868 
	C57.385826,168.102722 57.659611,166.898651 58.222633,165.127136 
	C57.650059,161.103226 56.924633,157.604401 55.870571,154.207565 
	C55.319218,152.430756 54.194786,150.769333 52.998093,153.993896 
	C52.360962,153.542252 51.723835,153.090622 51.044048,151.939606 
	C50.428535,150.308395 49.971500,148.686172 49.262276,148.567184 
	C46.552849,148.112625 43.762234,148.141968 41.004707,147.733551 
	C41.006725,147.305069 41.005966,147.133682 41.005203,146.962280 
	C42.355240,146.585190 43.684570,146.085052 45.059135,145.853714 
	C49.454811,145.113953 52.313305,142.691437 53.858944,138.648590 
	C54.665009,142.119125 54.837673,145.451385 55.778725,148.550308 
	C57.743690,155.021042 60.114368,161.368561 62.318378,167.766708 
	C62.318378,167.766708 62.152565,167.888321 62.069672,167.949142 
z"/>
<path fill="#FDE5E6" opacity="1.000000" stroke="none" 
	d="
M62.504562,168.006897 
	C60.114368,161.368561 57.743690,155.021042 55.778725,148.550308 
	C54.837673,145.451385 54.665009,142.119125 54.160912,138.461456 
	C54.530407,137.760056 54.883327,137.489746 55.537270,137.545517 
	C56.876434,140.267319 57.914577,142.663071 58.952721,145.058807 
	C58.952721,145.058807 58.976749,144.990524 59.000031,145.362167 
	C59.387730,146.823227 59.752151,147.912659 60.116570,149.002075 
	C60.167259,150.191986 60.217949,151.381912 60.566856,153.215637 
	C61.549294,155.968536 62.233509,158.077637 62.917725,160.186722 
	C62.917725,160.186722 62.921852,160.596832 62.980095,161.085159 
	C63.285835,162.077423 63.533337,162.581345 63.826492,163.426819 
	C64.216957,164.593292 64.561768,165.418213 64.906578,166.243134 
	C64.906578,166.243134 64.917404,166.616013 64.966858,166.795578 
	C65.168762,167.591766 65.321198,168.208405 65.722481,169.036255 
	C65.516403,169.809265 65.061485,170.371063 64.306107,170.966293 
	C63.567348,170.082169 63.129047,169.164627 62.504562,168.006897 
z"/>
<path fill="#F7A5B1" opacity="1.000000" stroke="none" 
	d="
M40.569283,146.976151 
	C41.005966,147.133682 41.006725,147.305069 40.567070,147.737396 
	C35.158257,146.441101 32.772396,150.113419 29.998514,153.000000 
	C29.575693,153.002289 29.152874,153.004578 28.414280,153.018875 
	C28.060831,150.325546 28.023157,147.620209 27.979197,144.465927 
	C32.026394,145.007996 36.079876,145.999008 40.569283,146.976151 
z"/>
<path fill="#E7939F" opacity="1.000000" stroke="none" 
	d="
M58.967560,144.641632 
	C57.914577,142.663071 56.876434,140.267319 55.768188,137.499969 
	C59.522877,138.230164 58.691605,141.486969 58.967560,144.641632 
z"/>
<path fill="#E7939F" opacity="1.000000" stroke="none" 
	d="
M62.952156,159.774048 
	C62.233509,158.077637 61.549294,155.968536 60.808517,153.483017 
	C67.015953,153.219711 62.393902,157.222076 62.952156,159.774048 
z"/>
<path fill="#E7939F" opacity="1.000000" stroke="none" 
	d="
M60.460281,148.925201 
	C59.752151,147.912659 59.387730,146.823227 58.977043,145.390594 
	C62.210033,145.005981 62.938839,146.221512 60.460281,148.925201 
z"/>
<path fill="#E7939F" opacity="1.000000" stroke="none" 
	d="
M69.635406,163.052612 
	C69.549202,163.960495 69.122360,164.924164 68.352341,165.939041 
	C68.437691,165.029633 68.866226,164.069031 69.635406,163.052612 
z"/>
<path fill="#E7939F" opacity="1.000000" stroke="none" 
	d="
M63.780838,163.085281 
	C63.533337,162.581345 63.285835,162.077423 63.036182,161.282410 
	C63.658730,161.449387 64.283424,161.907471 64.643631,162.696747 
	C64.179703,163.047058 63.980270,163.066162 63.780838,163.085281 
z"/>
<path fill="#D9969F" opacity="1.000000" stroke="none" 
	d="
M63.826488,163.426819 
	C63.980270,163.066162 64.179703,163.047058 64.679115,163.014893 
	C64.988335,163.171509 64.997566,163.341156 65.015594,164.007126 
	C65.024384,164.503433 65.043640,164.987396 65.043640,164.987396 
	C65.026131,165.196594 65.008614,165.405807 64.948837,165.929077 
	C64.561768,165.418213 64.216957,164.593292 63.826488,163.426819 
z"/>
<path fill="#E7939F" opacity="1.000000" stroke="none" 
	d="
M65.200211,164.898651 
	C65.043640,164.987396 65.024384,164.503433 65.028992,164.261627 
	C65.141335,164.283188 65.249054,164.546555 65.200211,164.898651 
z"/>
<path fill="#EE8C97" opacity="1.000000" stroke="none" 
	d="
M29.998722,153.399765 
	C32.772396,150.113419 35.158257,146.441101 40.564301,147.994461 
	C43.762234,148.141968 46.552849,148.112625 49.262276,148.567184 
	C49.971500,148.686172 50.428535,150.308395 51.001755,151.619812 
	C46.761673,155.418976 41.751335,155.007690 36.752686,155.104141 
	C34.747608,155.142807 32.763638,156.276001 30.382689,156.954147 
	C29.996521,155.931366 29.997726,154.865448 29.998722,153.399765 
z"/>
<path fill="#F08A99" opacity="1.000000" stroke="none" 
	d="
M52.999523,154.391235 
	C54.194786,150.769333 55.319218,152.430756 55.870571,154.207565 
	C56.924633,157.604401 57.650059,161.103226 58.258816,164.780762 
	C56.363132,165.748108 54.654564,166.380325 53.099926,167.278885 
	C51.969872,167.932022 51.043316,168.937256 50.026024,169.785492 
	C49.352486,168.600433 48.136658,167.414948 48.137569,166.230408 
	C48.138813,164.614395 49.227875,161.556931 49.574497,161.595535 
	C57.180779,162.442902 52.199806,157.158752 52.999523,154.391235 
z"/>
<path fill="#ED8B97" opacity="1.000000" stroke="none" 
	d="
M48.995613,201.609482 
	C43.721523,201.922073 38.439785,201.844025 33.076004,201.388779 
	C34.951763,195.078049 40.029575,197.110641 43.918007,197.231277 
	C45.647560,197.284912 47.300339,199.813553 48.995613,201.609482 
z"/>
<path fill="#F3889A" opacity="1.000000" stroke="none" 
	d="
M28.997663,199.594940 
	C24.575951,200.195099 24.840715,197.216095 25.128275,194.251923 
	C25.398649,191.464890 25.710329,188.681900 26.007248,185.449829 
	C28.882313,184.744537 29.061562,186.574524 29.017721,188.734619 
	C28.947050,192.216797 28.997974,195.701416 28.997663,199.594940 
z"/>
<path fill="#5293B3" opacity="1.000000" stroke="none" 
	d="
M114.993698,166.520050 
	C114.431046,167.450272 113.870071,167.987961 113.138748,168.762512 
	C111.554016,168.693787 110.139633,168.388214 108.361626,168.048157 
	C107.135880,165.867950 106.273766,163.722198 105.205826,161.288239 
	C105.000000,161.000000 105.005363,160.994507 105.005363,160.994507 
	C107.509987,160.462387 110.014618,159.930267 112.760521,159.202667 
	C113.666328,161.380630 114.330856,163.754059 114.993698,166.520050 
z"/>
<path fill="#F3FCFE" opacity="1.000000" stroke="none" 
	d="
M113.356613,157.097565 
	C111.571136,155.851913 109.671844,154.016907 112.740433,153.327026 
	C116.153992,152.559586 120.230530,151.341339 123.042328,155.597198 
	C120.176758,158.421936 117.229362,160.070541 113.356613,157.097565 
z"/>
<path fill="#6098B4" opacity="1.000000" stroke="none" 
	d="
M129.036163,162.622025 
	C128.555008,162.976990 128.109482,162.980286 127.329681,162.979126 
	C125.535858,162.142090 124.076317,161.309525 121.382080,159.772644 
	C123.643242,159.172577 125.490227,158.227524 127.196785,158.435379 
	C127.966080,158.529068 128.455429,160.921112 129.036163,162.622025 
z"/>
<path fill="#5293B3" opacity="1.000000" stroke="none" 
	d="
M116.000854,162.999847 
	C117.239708,162.086700 118.478561,161.173538 119.717407,160.260391 
	C119.992035,160.609146 120.266655,160.957901 120.541275,161.306671 
	C119.899002,161.855072 119.256729,162.403488 117.973846,162.975632 
	C116.889107,162.999542 116.444984,162.999695 116.000854,162.999847 
z"/>
<path fill="#6098B4" opacity="1.000000" stroke="none" 
	d="
M116.146149,163.225464 
	C116.444984,162.999695 116.889107,162.999542 117.666328,163.000000 
	C117.430092,163.150772 116.860764,163.300919 116.146149,163.225464 
z"/>
<path fill="#5293B3" opacity="1.000000" stroke="none" 
	d="
M104.997147,161.002655 
	C104.485855,160.700638 103.977409,160.395966 103.468964,160.091293 
	C103.650795,159.881943 103.832619,159.672577 104.014450,159.463226 
	C104.320198,159.784592 104.625938,160.105957 104.968521,160.710907 
	C105.005363,160.994507 105.000000,161.000000 104.997147,161.002655 
z"/>
<path fill="#5D97B3" opacity="1.000000" stroke="none" 
	d="
M130.531769,153.549454 
	C130.477386,153.581650 130.586136,153.517258 130.531769,153.549454 
z"/>
<path fill="#F6C4CC" opacity="1.000000" stroke="none" 
	d="
M177.450104,73.948204 
	C176.161560,75.387466 174.479218,76.757271 172.447220,78.156311 
	C168.481644,76.318352 164.865707,74.451157 160.295364,72.091118 
	C166.786087,69.785919 171.749954,73.914017 177.450104,73.948204 
z"/>
<path fill="#344661" opacity="1.000000" stroke="none" 
	d="
M178.785126,100.148392 
	C179.506699,99.956383 179.940414,99.954987 180.689301,100.035378 
	C182.472626,101.676674 182.987961,103.458527 182.454880,106.123993 
	C182.771362,107.143570 182.900238,107.567978 182.683411,108.024597 
	C181.229263,108.358498 180.120834,108.660179 179.012405,108.961861 
	C178.860046,107.108459 178.707687,105.255058 178.287170,103.203598 
	C178.178436,102.116684 178.337860,101.227837 178.785126,100.148392 
z"/>
<path fill="#3F4E66" opacity="1.000000" stroke="none" 
	d="
M179.014984,109.347191 
	C180.120834,108.660179 181.229263,108.358498 182.951752,108.025543 
	C183.744308,107.979752 183.922806,107.965225 184.298523,108.009583 
	C184.776917,108.149277 184.982788,108.320587 185.113342,108.582390 
	C185.006119,109.255768 184.898880,109.929138 184.753189,110.658302 
	C184.117386,111.750046 183.520065,112.786011 182.419830,113.899048 
	C181.916901,113.976128 181.984192,113.984604 182.225388,113.815582 
	C181.894196,113.444183 181.321793,113.241798 180.749405,113.039421 
	C180.335052,112.760132 179.920715,112.480843 179.269547,112.122498 
	C179.027664,111.273132 179.022614,110.502823 179.014984,109.347191 
z"/>
<path fill="#8E9BB2" opacity="1.000000" stroke="none" 
	d="
M170.248062,110.594208 
	C170.054337,110.126701 170.075363,109.867699 170.138184,109.221184 
	C170.886963,108.901115 171.593964,108.968567 172.656403,108.997025 
	C172.162155,109.572937 171.312485,110.187836 170.248062,110.594208 
z"/>
<path fill="#344661" opacity="1.000000" stroke="none" 
	d="
M177.955109,105.621231 
	C177.154800,105.155472 176.339142,104.396095 175.523499,103.636719 
	C175.837891,103.690308 176.152298,103.743896 176.712738,103.872726 
	C177.285782,104.407845 177.612778,104.867729 177.955109,105.621231 
z"/>
<path fill="#CDDEF3" opacity="1.000000" stroke="none" 
	d="
M185.333908,108.491127 
	C184.982788,108.320587 184.776917,108.149277 184.302521,107.822037 
	C184.109299,107.575607 184.066757,107.202812 184.066757,107.202820 
	C184.797363,107.105637 185.527969,107.008461 186.627228,106.924026 
	C186.995880,106.936783 186.965073,107.402603 186.918167,107.631226 
	C186.432327,108.039864 185.993408,108.219864 185.333908,108.491127 
z"/>
<path fill="#53627B" opacity="1.000000" stroke="none" 
	d="
M183.904144,106.904648 
	C184.066757,107.202812 184.109299,107.575607 184.105286,107.763153 
	C183.922806,107.965225 183.744308,107.979752 183.297455,107.993332 
	C182.900238,107.567978 182.771362,107.143570 182.599274,106.388443 
	C182.951248,106.240639 183.346390,106.423561 183.904144,106.904648 
z"/>
<path fill="#53627B" opacity="1.000000" stroke="none" 
	d="
M183.563156,104.620056 
	C183.472595,104.691986 183.431824,104.429962 183.431824,104.429962 
	C183.431824,104.429962 183.653717,104.548126 183.563156,104.620056 
z"/>
<path fill="#C8D7E6" opacity="1.000000" stroke="none" 
	d="
M180.875793,113.291801 
	C181.321793,113.241798 181.894196,113.444183 182.218445,113.848770 
	C181.647583,113.882042 181.324875,113.713112 180.875793,113.291801 
z"/>
</svg>